<?xml version="1.0" encoding="utf-8"?>
<!-- Generator: Adobe Illustrator 24.1.2, SVG Export Plug-In . SVG Version: 6.00 Build 0)  -->
<svg version="1.1" id="Capa_1" xmlns="http://www.w3.org/2000/svg" xmlns:xlink="http://www.w3.org/1999/xlink" x="0px" y="0px"
	 viewBox="0 0 257 259" style="enable-background:new 0 0 257 259;" xml:space="preserve">
<style type="text/css">
	.st0{clip-path:url(#SVGID_2_);}
	.st1{fill:#7FDDB2;}
	.st2{opacity:0.5;}
	.st3{fill:none;stroke:#FFFFFF;stroke-width:1.74;stroke-linecap:round;stroke-linejoin:round;}
	.st4{opacity:0.25;}
	.st5{fill:#ECF8FF;}
	.st6{fill:#DFF5FF;}
	.st7{fill:#D7EDFC;}
	.st8{fill:#87C0EC;}
	.st9{fill:#FFFFFF;}
	.st10{fill:#EDEDED;}
	.st11{fill:#5C87C7;}
	.st12{fill:#4061B0;}
	.st13{fill:none;stroke:#CCCCCC;stroke-width:4.35;stroke-miterlimit:10;}
	.st14{fill:#E2E2E2;}
	.st15{fill:#DB9821;}
	.st16{fill:#E2B659;}
	.st17{fill:#E5E5E5;}
	.st18{fill:#6D8EAF;}
	.st19{fill:#CE631A;}
	.st20{fill:#6F6865;}
	.st21{fill:none;stroke:#A6A3A3;stroke-width:7.81;stroke-miterlimit:10;}
	.st22{fill:none;stroke:#D29075;stroke-width:7.81;stroke-miterlimit:10;}
	.st23{fill:none;stroke:#F0EFE1;stroke-width:7.81;stroke-miterlimit:10;}
	.st24{opacity:0.2;fill:#649DE1;enable-background:new    ;}
	.st25{opacity:0.5;fill:#DBEAF8;enable-background:new    ;}
	.st26{fill:#E6983C;}
	.st27{fill:#F0CD46;}
	.st28{fill:#C0DBF4;}
	.st29{fill:#345375;}
	.st30{fill:#C1D9ED;}
	.st31{fill:#E6B64E;}
	.st32{fill:#EEC067;}
	.st33{fill:#223B51;}
	.st34{fill:#C49236;}
	.st35{fill:none;stroke:#263238;stroke-width:0.55;stroke-miterlimit:10;}
	.st36{fill:#407BFF;}
	.st37{opacity:0.2;enable-background:new    ;}
	.st38{fill:#3C5C85;}
	.st39{opacity:0.17;}
	.st40{opacity:0.17;enable-background:new    ;}
	.st41{opacity:0.29;fill:#83B2EA;enable-background:new    ;}
	.st42{fill:#E6A897;}
	.st43{fill:#D99789;}
	.st44{fill:#2F3D6A;}
	.st45{fill:#5392B8;}
	.st46{fill:#D89A80;}
	.st47{fill:#3D3D3D;}
	.st48{fill:#48546C;}
	.st49{opacity:0.2;}
	.st50{fill:#595959;}
	.st51{fill:#101010;}
	.st52{fill:#ADBBDF;}
	.st53{fill:#E1E6F7;}
	.st54{opacity:0.7;}
	.st55{opacity:0.7;fill:#C3E0FD;enable-background:new    ;}
	.st56{fill:#BDE0F4;}
</style>
<g>
	<defs>
		<rect id="SVGID_1_" x="4" y="33" width="249" height="181"/>
	</defs>
	<clipPath id="SVGID_2_">
		<use xlink:href="#SVGID_1_"  style="overflow:visible;"/>
	</clipPath>
	<g class="st0">
		<path class="st1" d="M150.8,173.1c3.9-7.9,10.1-14.4,17-19.7c5.6-4.3,11.9-8.4,18.5-10.9c5.9-2.2,7.2,2.9,11.9,4.7
			c3,1.1,6.4-0.6,8.8-2.8c2.3-2.1,4.2-4.7,6.9-6.3c2-1.2,5-1.7,7.1-0.5c2.6,1.5,2.2,5.3,5.7,5.8c1.7,0.2,3.3-0.4,4.8-1.1
			c3.5-1.8,7.1-3.3,10.8-4.4c3.4-1,7.8-1.3,9.8,1.6c1.9,2.8,0.1,6.7-2.2,9.2c-5.5,6.1-13.6,9.4-21.7,10.5c-2.2,0.3-4.5,0.5-6.5,1.4
			c-2,0.9-3.9,2.8-3.9,5c0,1.2,0.4,2.4,0.4,3.6c0,3.4-3.3,5.9-6.5,6.6c-8.4,1.9-13.9-5.5-21.8-6.6c-9-1.3-22.8,0.1-29,7.7"/>
		<g class="st2">
			<path class="st1" d="M165.6,169.4c8.9-8.2,20.2-13.4,32.2-15c7.5-1,15.1-0.5,22.6-1.2c7.5-0.7,15.3-2.7,20.7-7.7"/>
			<path class="st3" d="M165.6,169.4c8.9-8.2,20.2-13.4,32.2-15c7.5-1,15.1-0.5,22.6-1.2c7.5-0.7,15.3-2.7,20.7-7.7"/>
		</g>
		<path class="st1" d="M204.8,136.1c4.5-2.6,9.3-6.2,8-11.7c-0.4-1.8-1.7-3.4-1.5-5.3c0.1-1.2,0.9-2.2,1.5-3.3
			c0.7-1.3,1.1-2.7,1.2-4.2s-0.1-2.9-0.7-4.3c-1.2-2.9-3.6-5.1-5.1-7.8c-1.3-2.2-1.9-4.8-1.7-7.3c-4.7,0.5-8.8,3.5-13.4,4.8
			c-3.5,1-7.2,1-10.7,2.1c-3.1,1.1-5.9,3.1-7.9,5.7c-2,2.6-3.3,5.8-3.5,9.1c-1.5-0.1-3,0.2-4.4,0.8c-1.4,0.6-2.6,1.6-3.6,2.8
			c-1,1.3-1.7,2.8-2.1,4.4c-0.4,1.6-0.5,3.2-0.3,4.8c2.1,13.3,8.9,23.9,17.7,33.8c-1.9-2.1,3.9-8.8,5.1-10.1
			c4.9-5.7,11.7-8.9,18.1-12.5C202.5,137.4,203.6,136.8,204.8,136.1z"/>
		<g class="st2">
			<g class="st2">
				<path class="st1" d="M179.3,142.7c-1.1-5.7,0.4-11.6,2.2-17.1c1.8-5.4,3.9-10.7,7-15.4c3.1-4.7,7.2-9,12.2-11.6"/>
				<path class="st3" d="M179.3,142.7c-1.1-5.7,0.4-11.6,2.2-17.1c1.8-5.4,3.9-10.7,7-15.4c3.1-4.7,7.2-9,12.2-11.6"/>
			</g>
			<g class="st2">
				<path class="st1" d="M180.8,103.9c-0.1,5.5,0.8,11,2.7,16.2L180.8,103.9z"/>
				<path class="st3" d="M180.8,103.9c-0.1,5.5,0.8,11,2.7,16.2"/>
			</g>
			<g class="st2">
				<path class="st1" d="M184.2,118.2c5.5-4.3,14.3-7.4,21.3-7.7L184.2,118.2z"/>
				<path class="st3" d="M184.2,118.2c5.5-4.3,14.3-7.4,21.3-7.7"/>
			</g>
			<g class="st2">
				<path class="st1" d="M170,120.5c7.3,2.3,8.6,12.7,9,15.6L170,120.5z"/>
				<path class="st3" d="M170,120.5c7.3,2.3,8.6,12.7,9,15.6"/>
			</g>
			<g class="st2">
				<path class="st1" d="M180.3,129.3c5-4.4,13.7-9,19.6-8.1L180.3,129.3z"/>
				<path class="st3" d="M180.3,129.3c5-4.4,13.7-9,19.6-8.1"/>
			</g>
			<g class="st2">
				<path class="st1" d="M179.3,142.1c4-5.4,15-11.9,20.8-11L179.3,142.1z"/>
				<path class="st3" d="M179.3,142.1c4-5.4,15-11.9,20.8-11"/>
			</g>
			<g class="st2">
				<path class="st1" d="M192.5,100.1c-1.2,1.8-1.7,4.1-1.3,6.2L192.5,100.1z"/>
				<path class="st3" d="M192.5,100.1c-1.2,1.8-1.7,4.1-1.3,6.2"/>
			</g>
			<g class="st2">
				<path class="st1" d="M192.6,104.7c2.4-1.5,5.7-2.1,9.3-1.5L192.6,104.7z"/>
				<path class="st3" d="M192.6,104.7c2.4-1.5,5.7-2.1,9.3-1.5"/>
			</g>
		</g>
		<path class="st1" d="M113.9,182.8c-6.1-16.6-21.6-32.1-36.9-40.9c-3.7-2.2-9.2-3.8-10.9,1.4c-1.1,3.3-5,2.4-7.2,0.9
			c-2.7-1.9-4.3-5-6.6-7.3c-1.8-1.9-4.2-3.2-6.8-3.7c-1.3-0.2-2.6-0.2-3.9,0.2c-1.3,0.4-2.4,1-3.4,1.9c-1.4,1.4-2.3,3.3-3.9,4.5
			c-2.7,2-6.6,1.3-9.4-0.5c-2.9-1.8-5.1-4.4-7.9-6.3c-2.8-1.9-6.5-3-9.4-1.4c-3.9,2.1-4.3,7.8-2.6,11.9c1,2.5,2.6,6.2,4.6,8.2
			c2.8,2.8,6.8,4.7,10.6,5.5c2.8,0.6,5.8,0.5,8.6,1.2c1,0.2,2.2,0.7,2.4,1.8c0.3,1.7-1.8,2.7-3,3.3c-2.1,1.1-4.2,3.4-3.2,5.5
			c0.6,1.3,2.2,1.9,3.7,2.2c4.4,0.7,8.7-0.5,12.9-1.8c2.5-0.8,4.7-2.4,7.3-3c1.3-0.4,4.8-0.5,4.4,1.8c-0.2,0.7-0.6,1.3-1.2,1.8
			c-0.6,0.4-1.1,0.9-1.6,1.4c-2,2.4,0,5.3,2.6,5.9c2,0.5,4.1,0,6.1-0.5c13.2-3.1,27-4.3,40.2-1.6c2.8,0.6,5.9,1.5,7.3,4"/>
		<g class="st2">
			<path class="st1" d="M99.7,172.3c-10-9.1-22.5-14.9-35.9-16.6c-8.3-1-16.8-0.5-25.2-1.2c-8.4-0.7-17.1-2.9-23.1-8.5"/>
			<path class="st3" d="M99.7,172.3c-10-9.1-22.5-14.9-35.9-16.6c-8.3-1-16.8-0.5-25.2-1.2c-8.4-0.7-17.1-2.9-23.1-8.5"/>
		</g>
		<g class="st4">
			<path class="st1" d="M102.7,173.6c0,0-23-15.3-29.5-30.9c4.4,1.2,7.2,2.6,10.3,5.1c3.3,4.7,11.2,11.9,16.6,16.6
				C100.9,167,101.8,170,102.7,173.6z"/>
		</g>
		<path class="st1" d="M101.9,168.3c-0.9-5.4-3.3-10.8-4.2-16.3c-1.5-8.8-1.7-17.7-0.1-26.5c1.4-7.5,3.7-15.3,1.2-22.8
			c-0.7-2-1.9-4.2-4.5-4.2c-1,0-2,0.4-2.8,1.1c-1.9,1.7-2.2,4.1-2.6,6.4l-1,7.7c-0.3,2.5-4.2,2.8-4.9,0.4v-0.1
			c-0.6-2.1-0.5-4.2-0.3-6.3c0.4-4.6,0.9-9.3,0.2-13.8C82,88.4,78.9,82.7,73,80.6c-2.1-0.7-4.4-0.8-6.5-0.2c-6,1.7-7.2,7.3-6,12
			c0.8,3.3,2.7,6.3,4.4,9.3c4.2,7.4,1.9,14.3,3,22.6C70.1,141.7,87.1,158.5,101.9,168.3z"/>
		<g class="st2">
			<path class="st1" d="M69.4,90.5c12.4,15,8,50.6,29.6,69.8L69.4,90.5z"/>
			<path class="st3" d="M69.4,90.5c12.4,15,8,50.6,29.6,69.8"/>
		</g>
		<g class="st2">
			<path class="st1" d="M93.6,108.2c1.4,7.6-3.5,16.2-4.6,20.9c-1.1,4.7-1.7,12.8-0.5,17.6"/>
			<path class="st3" d="M93.6,108.2c1.4,7.6-3.5,16.2-4.6,20.9c-1.1,4.7-1.7,12.8-0.5,17.6"/>
		</g>
		<path class="st5" d="M57.9,182.6c-0.5-3-9-22-18.9-16.9c-5.8,3-4.8,14.1,4.3,22.5c-1.8-1.7-3.9-3.7-6.3-4.2
			c-0.7-0.1-1.4,0-2.1,0.2c-0.7,0.2-1.3,0.6-1.8,1.1c-0.9,0.8-1.1,2.1-1.2,3.3c0,2.2,0.5,4.3,1.5,6.3c1,1.9,2.5,3.6,4.3,4.8
			c-2-1.1-3.8-2.5-6.1-2.7c-0.7-0.1-2,0.4-2.4,1c-0.3,0.7-0.4,3.4,4.1,5.5c-18.1-3.4-19.2,4.3-12.7,4.3h53.4"/>
		<path class="st6" d="M91.8,167.5C91,162.6,82,132,66.2,140.1c-9.4,4.8-7.7,22.6,6.9,36.1c-2.9-2.8-6.2-5.9-10.1-6.7
			c-2.1-0.4-4.7,0.6-6.3,2c-1.4,1.3-1.8,3.4-1.9,5.3c-0.1,3.5,0.7,7,2.3,10.1c1.6,3.1,4,5.8,6.9,7.7c-3.2-1.8-6-4.1-9.7-4.4
			c-1.2-0.1-3.2,0.6-3.8,1.7c-0.6,1.2-0.6,5.5,6.5,8.8c-29-5.5-30.7,6.9-20.3,6.9h68.9"/>
		<path class="st5" d="M210.4,182.6c0.5-3,9-22,18.9-16.9c5.8,3,4.8,14.1-4.3,22.5c1.8-1.7,3.9-3.7,6.3-4.2c0.7-0.1,1.4,0,2.1,0.2
			c0.7,0.2,1.3,0.6,1.8,1.1c0.9,0.8,1.1,2.1,1.2,3.3c0,2.2-0.5,4.3-1.5,6.3c-1,1.9-2.5,3.6-4.3,4.8c2-1.1,3.8-2.5,6.1-2.7
			c0.7-0.1,2,0.4,2.4,1c0.3,0.7,0.4,3.4-4.1,5.5c18.1-3.4,19.2,4.3,12.7,4.3h-53.4"/>
		<path class="st6" d="M176.5,167.5c0.9-4.9,9.8-35.5,25.6-27.4c9.4,4.8,7.7,22.6-6.9,36.1c2.9-2.8,6.2-5.9,10.1-6.7
			c2.1-0.4,4.7,0.6,6.3,2c1.4,1.3,1.8,3.4,1.9,5.3c0.1,3.5-0.7,7-2.3,10.1c-1.6,3.1-4,5.8-6.9,7.7c3.2-1.8,6-4.1,9.7-4.4
			c1.2-0.1,3.2,0.6,3.8,1.7c0.6,1.2,0.6,5.5-6.5,8.8c29-5.5,30.7,6.9,20.3,6.9h-68.9"/>
		<path class="st7" d="M108,67.9l4.3,2.3l-2.1-5.6"/>
		<path class="st7" d="M103.7,69.8c5,0,9-4,9-9c0-5-4-9-9-9c-5,0-9,4-9,9C94.7,65.7,98.8,69.8,103.7,69.8z"/>
		<path class="st8" d="M103.2,55.6c0.6-0.1,1.2,0,1.7,0.3c0.5,0.2,1,0.6,1.3,1.1c0.3,0.5,0.5,1,0.6,1.6c0.1,0.6,0,1.2-0.3,1.7
			l-0.3,0.8l-1.1,2.9l-1.2,0.1l-1.2,0.1l-1.6-2.6l-0.5-0.7c-0.3-0.5-0.5-1-0.5-1.5c-0.1-0.9,0.2-1.7,0.8-2.4
			C101.5,56.2,102.3,55.7,103.2,55.6L103.2,55.6z M103.2,55.1c-1,0.1-1.9,0.6-2.6,1.4c-0.7,0.8-1,1.8-0.9,2.8
			c0.1,0.6,0.3,1.2,0.6,1.7l2.2,3.6l1.5-0.1l1.5-0.1l1.5-3.9c0.3-0.6,0.4-1.3,0.3-1.9c-0.1-0.7-0.3-1.3-0.7-1.8
			c-0.4-0.5-0.9-1-1.5-1.2C104.5,55.2,103.8,55.1,103.2,55.1z"/>
		<path class="st8" d="M104.2,67.3c-0.4,0-0.8-0.1-1.1-0.3c-0.3-0.3-0.5-0.6-0.5-1l-0.1-1.1l3-0.3l0.1,1.1c0,0.4-0.1,0.8-0.3,1.1
			C105,67.1,104.6,67.3,104.2,67.3z"/>
		<path class="st8" d="M101.9,59.8c-0.1,0-0.1,0-0.2-0.1c0,0-0.1-0.1-0.1-0.2c0-0.1,0-0.1,0.1-0.2c0,0,0.1-0.1,0.2-0.1l3.2-0.3
			c0.1,0,0.1,0,0.2,0.1c0.1,0,0.1,0.1,0.1,0.2c0,0.1,0,0.1-0.1,0.2c0,0.1-0.1,0.1-0.2,0.1L101.9,59.8L101.9,59.8z"/>
		<path class="st8" d="M104,64.5c-0.1,0-0.1,0-0.2-0.1c0,0-0.1-0.1-0.1-0.2l-0.4-4.8c0,0,0-0.1,0-0.1c0,0,0-0.1,0-0.1
			c0,0,0,0,0.1-0.1c0,0,0.1,0,0.1,0c0,0,0.1,0,0.1,0c0,0,0.1,0,0.1,0c0,0,0,0,0.1,0.1s0,0.1,0,0.1l0.4,4.8c0,0,0,0.1,0,0.1
			c0,0,0,0.1,0,0.1c0,0,0,0-0.1,0.1C104.1,64.5,104,64.5,104,64.5L104,64.5z"/>
		<path class="st7" d="M154.7,76.4l-3.9,2.1l1.9-5.1"/>
		<path class="st7" d="M158.5,78.2c4.5,0,8.2-3.7,8.2-8.2s-3.7-8.2-8.2-8.2c-4.5,0-8.2,3.7-8.2,8.2S154,78.2,158.5,78.2z"/>
		<path class="st8" d="M163.1,70.8c0.1-0.3,0.1-0.7,0.1-1.1c0-0.3,0-0.7-0.1-1l-0.8,0.1c-0.1-0.4-0.2-0.7-0.4-1.1l0.6-0.5
			c-0.2-0.3-0.4-0.6-0.7-0.9c-0.1-0.1-0.2-0.2-0.3-0.3c0,0-0.1,0-0.1-0.1c-0.1-0.1-0.3-0.2-0.4-0.3l-0.5,0.6l-0.1-0.1l-0.1-0.1
			c-0.3-0.1-0.5-0.2-0.8-0.3l0.1-0.8c-0.3-0.1-0.7-0.1-1.1-0.1c-0.3,0-0.7,0-1,0.1l0.1,0.8c-0.4,0.1-0.7,0.2-1.1,0.4l-0.5-0.6
			c-0.3,0.2-0.6,0.4-0.9,0.7c-0.2,0.2-0.5,0.5-0.6,0.8l0.6,0.5c-0.2,0.3-0.4,0.7-0.5,1.1l-0.8-0.1c-0.1,0.3-0.1,0.7-0.1,1.1
			c0,0.3,0,0.7,0.1,1l0.8-0.1c0.1,0.4,0.2,0.8,0.4,1.1l-0.6,0.5c0.4,0.6,0.9,1.1,1.4,1.5l0.5-0.6c0.3,0.2,0.7,0.4,1.1,0.5l-0.1,0.8
			c0.3,0.1,0.7,0.1,1.1,0.1c0.3,0,0.7,0,1-0.1l-0.1-0.7c0.4-0.1,0.8-0.2,1.1-0.4l0.5,0.6c0.3-0.2,0.6-0.4,0.9-0.7
			c0.2-0.2,0.4-0.5,0.6-0.8l-0.6-0.5c0.2-0.3,0.4-0.7,0.5-1.1L163.1,70.8z M160.9,69.8c0,0.5-0.2,0.9-0.4,1.3
			c-0.3,0.4-0.6,0.7-1.1,0.9c-0.4,0.2-0.9,0.2-1.4,0.1c-0.5-0.1-0.9-0.3-1.2-0.7c-0.3-0.3-0.6-0.8-0.7-1.2c-0.1-0.5-0.1-0.9,0.1-1.4
			c0.2-0.4,0.5-0.8,0.9-1.1c0.4-0.3,0.8-0.4,1.3-0.4c0.3,0,0.7,0.1,1,0.2c0.3,0.1,0.6,0.3,0.8,0.5c0.2,0.2,0.4,0.5,0.5,0.8
			C160.9,69.1,160.9,69.5,160.9,69.8z"/>
		<path class="st9" d="M183.2,181.9h-75.7v22.8h75.7V181.9z"/>
		<path class="st10" d="M60.1,204.7h47.4v-22.8H60.1V204.7z"/>
		<path class="st11" d="M101.7,177.9v5.8h74.6c1.4,0,2.6,0.5,3.6,1.5c1,1,1.5,2.3,1.5,3.6v9.1c0,1.4-0.5,2.6-1.5,3.6
			c-1,1-2.3,1.5-3.6,1.5h-74.6v5.7H179c2.3,0,4.6-0.9,6.2-2.6c1.7-1.7,2.6-3.9,2.6-6.2v-13.1c0-2.3-0.9-4.6-2.6-6.2
			s-3.9-2.6-6.2-2.6L101.7,177.9z"/>
		<path class="st12" d="M101.7,177.9H55.8v5.7h45.9V177.9z"/>
		<path class="st12" d="M101.7,202.9H55.8v5.7h45.9V202.9z"/>
		<path class="st13" d="M60.1,188.3h47.4"/>
		<path class="st13" d="M60.1,194.6h47.4"/>
		<path class="st13" d="M60.1,199.8h47.4"/>
		<path class="st14" d="M167.3,188.3l-59.8,1v-2L167.3,188.3z"/>
		<path class="st14" d="M173.4,194.6l-65.9,1v-2L173.4,194.6z"/>
		<path class="st14" d="M167.3,199.8l-59.8,1v-2L167.3,199.8z"/>
		<path class="st15" d="M73.9,139.3h60.5v38.6H73.9c-1.8,0-3.4-0.7-4.7-1.9c-1.2-1.2-1.9-2.9-1.9-4.7v-25.4c0-1.8,0.7-3.5,1.9-4.7
			C70.5,140,72.2,139.3,73.9,139.3z"/>
		<path class="st9" d="M112.8,174h63.9v-30.7h-63.9V174z"/>
		<path class="st16" d="M182.5,139.3v5.7h-62.9c-1.4,0-2.6,0.5-3.6,1.5c-1,1-1.5,2.3-1.5,3.6v17c0,1.4,0.5,2.6,1.5,3.6
			c1,1,2.3,1.5,3.6,1.5h62.9v5.7H117c-1.2,0-2.3-0.2-3.4-0.7c-1.1-0.4-2-1.1-2.9-1.9c-0.8-0.8-1.5-1.8-1.9-2.9
			c-0.4-1.1-0.7-2.2-0.7-3.4v-21c0-1.2,0.2-2.3,0.7-3.4c0.4-1.1,1.1-2,1.9-2.9c0.8-0.8,1.8-1.5,2.9-1.9c1.1-0.4,2.2-0.7,3.4-0.7
			L182.5,139.3z"/>
		<path class="st17" d="M128.7,149.6l48-1v2L128.7,149.6z"/>
		<path class="st17" d="M118.8,153.8l58-1v2L118.8,153.8z"/>
		<path class="st17" d="M122.5,163.9l54.2-1v2L122.5,163.9z"/>
		<path class="st17" d="M128.7,169.1l48-1v2L128.7,169.1z"/>
		<path class="st9" d="M175.1,131.9H89.3v7.9h85.9V131.9z"/>
		<path class="st18" d="M175.1,105.3H89.3v7.9h85.9V105.3z"/>
		<path class="st16" d="M177.9,97.4H84.8v7.9h93.2V97.4z"/>
		<path class="st19" d="M175.1,113.2H91.4v7.9h83.7V113.2z"/>
		<path class="st20" d="M174.3,121.2H95.4v10.8h78.9V121.2z"/>
		<path class="st21" d="M104.3,126.5h9.4"/>
		<path class="st21" d="M119,126.5h46.2"/>
		<path class="st22" d="M98.1,117.2h67"/>
		<path class="st23" d="M131.6,109.3h40.1"/>
		<path class="st23" d="M89.3,101.3h82.5"/>
		<path class="st24" d="M73.8,170.1c-1.5-0.4-2.8-1.2-3.7-2.3c-1-1.2-1.6-2.6-1.7-4.1c0-0.1,0-0.3,0-0.5c0-0.1,0-0.2,0-0.3
			c0-0.1,0-0.3,0-0.4c0.1-1.5,0.7-2.9,1.7-4.1c1-1.2,2.3-2,3.7-2.3c5.6-1.6,10.5-4.9,14-9.5c3.5-4.6,5.4-10.3,5.4-16.1
			c0-1.6-0.1-3.2-0.4-4.8c0-0.3-0.1-0.5-0.2-0.8c0-0.2-0.1-0.4-0.1-0.6c0,0,0,0,0,0c0-0.1,0-0.2-0.1-0.3c0-0.2-0.1-0.4-0.1-0.6
			c-0.1-0.3-0.2-0.6-0.2-0.9h-0.9c0,0.1,0.1,0.2,0.1,0.3v0c0.1,0.2,0.1,0.3,0.1,0.5c0,0.1,0.1,0.2,0.1,0.3c0,0.1,0.1,0.3,0.1,0.5
			c0,0.2,0.1,0.2,0.1,0.3c0,0.1,0.1,0.3,0.1,0.5c0,0.1,0,0.1,0,0.2c0,0,0,0,0,0.1l0.1,0.6c0.3,1.5,0.4,3.1,0.4,4.7
			c0,5.6-1.8,11.1-5.2,15.6c-3.4,4.5-8.2,7.7-13.6,9.2c-1.6,0.4-3.1,1.4-4.2,2.7c-1.1,1.3-1.7,2.9-1.9,4.6c0,0.2,0,0.3,0,0.5
			c0,0.1,0,0.2,0,0.3c0,0.2,0,0.3,0,0.5c0.1,1.7,0.8,3.3,1.9,4.6c1.1,1.3,2.6,2.2,4.2,2.6c6.2,1.7,11.5,5.7,14.9,11.1
			c3.4,5.4,4.7,12,3.5,18.3c-0.4,2.2-1.1,4.3-2,6.2H43.4c-1.6-3.4-2.4-7.1-2.4-10.9c0-5.6,1.9-11.1,5.3-15.6
			c3.4-4.5,8.2-7.7,13.6-9.2c1.6-0.4,3.1-1.3,4.2-2.6c1.1-1.3,1.7-2.9,1.9-4.6c0-0.2,0-0.3,0-0.5c0-0.1,0-0.2,0-0.3
			c0-0.2,0-0.3,0-0.5c-0.1-1.7-0.8-3.3-1.9-4.6c-1.1-1.3-2.6-2.2-4.2-2.6c-5.4-1.5-10.2-4.8-13.6-9.2c-3.4-4.5-5.2-9.9-5.3-15.6
			c0-1.6,0.1-3.1,0.4-4.7c0.1-0.3,0.1-0.5,0.2-0.8c0.1-0.3,0.1-0.5,0.2-0.8c0,0,0,0,0,0c0.1-0.2,0.1-0.4,0.2-0.6c0,0,0,0,0,0
			c0-0.1,0-0.2,0.1-0.2c0-0.1,0.1-0.3,0.1-0.4c0,0,0,0,0,0c0-0.1,0.1-0.2,0.1-0.3h-0.9c-0.1,0.3-0.2,0.6-0.3,0.9
			c-0.1,0.2-0.1,0.4-0.1,0.6c0,0.1-0.1,0.2-0.1,0.3c0,0,0,0,0,0c0,0.2-0.1,0.4-0.1,0.6c-0.1,0.3-0.1,0.5-0.2,0.8
			c-0.3,1.6-0.4,3.2-0.4,4.8c0,5.8,1.9,11.5,5.4,16.1c3.5,4.6,8.4,8,14,9.5c1.5,0.4,2.8,1.2,3.7,2.3c1,1.2,1.6,2.6,1.7,4.1
			c0,0.1,0,0.3,0,0.4c0,0.1,0,0.2,0,0.3c0,0.1,0,0.3,0,0.5c-0.1,1.5-0.7,2.9-1.7,4.1c-1,1.2-2.3,2-3.7,2.4
			c-6.4,1.8-11.9,5.9-15.4,11.5c-3.5,5.6-4.8,12.4-3.6,18.9c0.4,2.4,1.2,4.8,2.3,7h47.6c1.8-3.7,2.7-7.7,2.7-11.8
			c0-5.8-1.9-11.5-5.4-16.1C84.3,175,79.4,171.7,73.8,170.1z"/>
		<path class="st9" d="M92.4,195.8c0,1.6-0.1,3.1-0.4,4.7c-0.4,2.2-1.1,4.2-2,6.2H43.4c-1.6-3.4-2.4-7.1-2.4-10.9
			c0-5.6,1.9-11.1,5.3-15.6c3.4-4.5,8.2-7.7,13.6-9.2c1.6-0.4,3.1-1.3,4.2-2.6c1.1-1.3,1.7-2.9,1.9-4.6c0-0.2,0-0.3,0-0.5
			c0-0.1,0-0.2,0-0.3c0-0.2,0-0.3,0-0.5c-0.1-1.7-0.8-3.3-1.9-4.6c-1.1-1.3-2.6-2.2-4.2-2.6c-5.4-1.5-10.2-4.8-13.6-9.2
			c-3.4-4.5-5.2-9.9-5.3-15.6c0-1.6,0.1-3.1,0.4-4.7c0.1-0.3,0.1-0.5,0.2-0.8c0.1-0.3,0.1-0.5,0.2-0.8c0,0,0,0,0,0
			c0.1-0.2,0.1-0.4,0.2-0.6c0.1-0.2,0.1-0.4,0.2-0.7c0-0.1,0.1-0.2,0.1-0.3h48.9c0,0.1,0.1,0.2,0.1,0.3c0,0.1,0.1,0.3,0.1,0.5
			c0,0.1,0.1,0.2,0.1,0.3c0,0.1,0.1,0.3,0.1,0.5c0,0.2,0.1,0.2,0.1,0.3c0,0.1,0.1,0.3,0.1,0.5c0,0.1,0,0.2,0.1,0.2l0.1,0.6
			c0.3,1.5,0.4,3.1,0.4,4.7c0,5.6-1.8,11.1-5.2,15.6c-3.4,4.5-8.2,7.7-13.6,9.2c-1.6,0.4-3.1,1.3-4.2,2.6c-1.1,1.3-1.7,2.9-1.9,4.6
			c0,0.2,0,0.3,0,0.5c0,0.1,0,0.2,0,0.3c0,0.2,0,0.3,0,0.5c0.1,1.7,0.8,3.3,1.9,4.6c1.1,1.3,2.6,2.2,4.2,2.6
			c5.4,1.5,10.2,4.8,13.6,9.2C90.5,184.7,92.4,190.1,92.4,195.8z"/>
		<path class="st25" d="M92.4,195.8c0,1.6-0.1,3.1-0.4,4.7c-0.4,2.2-1.1,4.2-2,6.2H43.4c-1.6-3.4-2.4-7.1-2.4-10.9
			c0-5.6,1.9-11.1,5.3-15.6c3.4-4.5,8.2-7.7,13.6-9.2c1.6-0.4,3.1-1.3,4.2-2.6c1.1-1.3,1.7-2.9,1.9-4.6c0-0.2,0-0.3,0-0.5
			c0-0.1,0-0.2,0-0.3c0-0.2,0-0.3,0-0.5c-0.1-1.7-0.8-3.3-1.9-4.6c-1.1-1.3-2.6-2.2-4.2-2.6c-5.4-1.5-10.2-4.8-13.6-9.2
			c-3.4-4.5-5.2-9.9-5.3-15.6c0-1.6,0.1-3.1,0.4-4.7c0.1-0.3,0.1-0.5,0.2-0.8c0.1-0.3,0.1-0.5,0.2-0.8c0,0,0,0,0,0
			c0.1-0.2,0.1-0.4,0.2-0.6c0.1-0.2,0.1-0.4,0.2-0.7c0-0.1,0.1-0.2,0.1-0.3h48.9c0,0.1,0.1,0.2,0.1,0.3c0,0.1,0.1,0.3,0.1,0.5
			c0,0.1,0.1,0.2,0.1,0.3c0,0.1,0.1,0.3,0.1,0.5c0,0.2,0.1,0.2,0.1,0.3c0,0.1,0.1,0.3,0.1,0.5c0,0.1,0,0.2,0.1,0.2l0.1,0.6
			c0.3,1.5,0.4,3.1,0.4,4.7c0,5.6-1.8,11.1-5.2,15.6c-3.4,4.5-8.2,7.7-13.6,9.2c-1.6,0.4-3.1,1.3-4.2,2.6c-1.1,1.3-1.7,2.9-1.9,4.6
			c0,0.2,0,0.3,0,0.5c0,0.1,0,0.2,0,0.3c0,0.2,0,0.3,0,0.5c0.1,1.7,0.8,3.3,1.9,4.6c1.1,1.3,2.6,2.2,4.2,2.6
			c5.4,1.5,10.2,4.8,13.6,9.2C90.5,184.7,92.4,190.1,92.4,195.8z"/>
		<path class="st26" d="M45.5,145.6c0,0,4.1,6.6,13.8,9.7c2.5,0.7,3.3,1.3,4.8,2.6c1.4,1.3,1.9,3.6,1.9,5.5c0,1.4,0.8,22.2,0.8,24.8
			c0,2.4,0.3,0.6,0.2,0.1c0.3-14.7,0.6-25.6,0.6-25.6s0.9-4.6,2.2-5.3c1.4-0.6,6.3-2.9,8.3-3.5c2-0.6,6.9-5,6.9-5s6.2-8.9,6.6-10
			c0.4-1.1-2.8-1.2-2.8-1.2L45.5,145.6z"/>
		<path class="st27" d="M68.9,146.1c13-2,23.2-5.9,22.8-8.6c-0.4-2.7-11.3-3.2-24.3-1.2c-13,2-23.2,5.9-22.8,8.6
			C45,147.6,55.9,148.1,68.9,146.1z"/>
		<g class="st2">
			<g class="st2">
				<path class="st9" d="M59.7,152c-0.3,0-0.6,0-0.8-0.1c-1.8-0.6-3.5-1.4-5.1-2.4c-0.3-0.2-0.5-0.4-0.7-0.7
					c-0.2-0.3-0.3-0.6-0.4-0.9c-0.2-0.7,0-1.4,0.3-2c0.4-0.6,0.9-1,1.6-1.1c0.7-0.2,1.4,0,2,0.3c1.3,0.8,2.6,1.4,4,1.9
					c0.6,0.2,1.1,0.6,1.4,1.1c0.3,0.5,0.4,1.1,0.3,1.8s-0.4,1.2-0.9,1.6S60.3,152,59.7,152z"/>
			</g>
			<g class="st2">
				<path class="st9" d="M49.6,144.4c-0.4,0-0.9-0.1-1.3-0.3c-0.4-0.2-0.7-0.5-0.9-0.9c-4.5-7.1-3.4-15.1-3.3-15.4
					c0.1-0.7,0.5-1.3,1-1.7c0.6-0.4,1.3-0.6,1.9-0.5c0.7,0.1,1.3,0.5,1.7,1c0.4,0.6,0.6,1.3,0.5,1.9c0,0.1-0.9,6.5,2.6,11.9
					c0.2,0.4,0.4,0.8,0.4,1.3c0,0.5-0.1,0.9-0.3,1.3c-0.2,0.4-0.6,0.7-0.9,1C50.5,144.2,50,144.4,49.6,144.4L49.6,144.4z"/>
			</g>
		</g>
		<g class="st2">
			<g class="st2">
				<path class="st9" d="M59.7,173.9c-0.3,0-0.6,0-0.8,0.1c-1.8,0.6-3.5,1.4-5.1,2.4c-0.6,0.4-1,0.9-1.1,1.6c-0.2,0.7,0,1.4,0.3,2
					c0.4,0.6,0.9,1,1.6,1.1s1.4,0,2-0.3c1.3-0.8,2.6-1.4,4-1.9c0.6-0.2,1.1-0.6,1.4-1.1c0.3-0.5,0.4-1.1,0.3-1.8
					c-0.1-0.6-0.4-1.2-0.9-1.6C60.9,174.2,60.3,174,59.7,173.9z"/>
			</g>
			<g class="st2">
				<path class="st9" d="M49.6,181.6c-0.4,0-0.9,0.1-1.3,0.3c-0.4,0.2-0.7,0.5-0.9,0.9c-4.5,7.1-3.4,15.1-3.3,15.4
					c0.1,0.3,0.2,0.7,0.3,1c0.2,0.3,0.4,0.5,0.7,0.8c0.3,0.2,0.6,0.3,0.9,0.4s0.7,0.1,1,0s0.7-0.2,1-0.3c0.3-0.2,0.5-0.4,0.7-0.7
					c0.2-0.3,0.3-0.6,0.4-0.9c0.1-0.3,0.1-0.7,0-1c0-0.1-0.9-6.5,2.6-11.9c0.2-0.4,0.4-0.8,0.4-1.3c0-0.5-0.1-0.9-0.3-1.3
					c-0.2-0.4-0.6-0.7-0.9-1C50.5,181.7,50,181.6,49.6,181.6L49.6,181.6z"/>
			</g>
		</g>
		<path class="st28" d="M73.8,170.1c-1.5-0.4-2.8-1.2-3.7-2.3c-1-1.2-1.6-2.6-1.7-4.1c0-0.1,0-0.3,0-0.5c0-0.1,0-0.2,0-0.3
			c0-0.1,0-0.3,0-0.4c0.1-1.5,0.7-2.9,1.7-4.1c1-1.2,2.3-2,3.7-2.3c5.6-1.6,10.5-4.9,14-9.5c3.5-4.6,5.4-10.3,5.4-16.1
			c0-1.6-0.1-3.2-0.4-4.8c0-0.3-0.1-0.5-0.2-0.8c0-0.2-0.1-0.4-0.1-0.6c0,0,0,0,0,0c0-0.1,0-0.2-0.1-0.3c0-0.2-0.1-0.4-0.1-0.6
			c-0.1-0.3-0.2-0.6-0.2-0.9h-0.9c0,0.1,0.1,0.2,0.1,0.3v0c0.1,0.2,0.1,0.3,0.1,0.5c0,0.1,0.1,0.2,0.1,0.3c0,0.1,0.1,0.3,0.1,0.5
			c0,0.2,0.1,0.2,0.1,0.3c0,0.1,0.1,0.3,0.1,0.5c0,0.1,0,0.1,0,0.2c0,0,0,0,0,0.1l0.1,0.6c0.3,1.5,0.4,3.1,0.4,4.7
			c0,5.6-1.8,11.1-5.2,15.6c-3.4,4.5-8.2,7.7-13.6,9.2c-1.6,0.4-3.1,1.4-4.2,2.7c-1.1,1.3-1.7,2.9-1.9,4.6c0,0.2,0,0.3,0,0.5
			c0,0.1,0,0.2,0,0.3c0,0.2,0,0.3,0,0.5c0.1,1.7,0.8,3.3,1.9,4.6c1.1,1.3,2.6,2.2,4.2,2.6c6.2,1.7,11.5,5.7,14.9,11.1
			c3.4,5.4,4.7,12,3.5,18.3c-0.4,2.2-1.1,4.3-2,6.2H43.4c-1.6-3.4-2.4-7.1-2.4-10.9c0-5.6,1.9-11.1,5.3-15.6
			c3.4-4.5,8.2-7.7,13.6-9.2c1.6-0.4,3.1-1.3,4.2-2.6c1.1-1.3,1.7-2.9,1.9-4.6c0-0.2,0-0.3,0-0.5c0-0.1,0-0.2,0-0.3
			c0-0.2,0-0.3,0-0.5c-0.1-1.7-0.8-3.3-1.9-4.6c-1.1-1.3-2.6-2.2-4.2-2.6c-5.4-1.5-10.2-4.8-13.6-9.2c-3.4-4.5-5.2-9.9-5.3-15.6
			c0-1.6,0.1-3.1,0.4-4.7c0.1-0.3,0.1-0.5,0.2-0.8c0.1-0.3,0.1-0.5,0.2-0.8c0,0,0,0,0,0c0.1-0.2,0.1-0.4,0.2-0.6c0,0,0,0,0,0
			c0-0.1,0-0.2,0.1-0.2c0-0.1,0.1-0.3,0.1-0.4c0,0,0,0,0,0c0-0.1,0.1-0.2,0.1-0.3h-0.9c-0.1,0.3-0.2,0.6-0.3,0.9
			c-0.1,0.2-0.1,0.4-0.1,0.6c0,0.1-0.1,0.2-0.1,0.3c0,0,0,0,0,0c0,0.2-0.1,0.4-0.1,0.6c-0.1,0.3-0.1,0.5-0.2,0.8
			c-0.3,1.6-0.4,3.2-0.4,4.8c0,5.8,1.9,11.5,5.4,16.1c3.5,4.6,8.4,8,14,9.5c1.5,0.4,2.8,1.2,3.7,2.3c1,1.2,1.6,2.6,1.7,4.1
			c0,0.1,0,0.3,0,0.4c0,0.1,0,0.2,0,0.3c0,0.1,0,0.3,0,0.5c-0.1,1.5-0.7,2.9-1.7,4.1c-1,1.2-2.3,2-3.7,2.4
			c-6.4,1.8-11.9,5.9-15.4,11.5c-3.5,5.6-4.8,12.4-3.6,18.9c0.4,2.4,1.2,4.8,2.3,7h47.6c1.8-3.7,2.7-7.7,2.7-11.8
			c0-5.8-1.9-11.5-5.4-16.1C84.3,175,79.4,171.7,73.8,170.1z"/>
		<path class="st29" d="M99.8,206.1c0,0.7-0.3,1.3-0.7,1.8c-0.5,0.5-1.1,0.7-1.8,0.7H36.1c-0.3,0-0.7-0.1-1-0.2
			c-0.3-0.1-0.6-0.3-0.8-0.5c-0.2-0.2-0.4-0.5-0.5-0.8c-0.1-0.3-0.2-0.6-0.2-1c0-0.7,0.3-1.3,0.7-1.8c0.5-0.5,1.1-0.7,1.8-0.7h61.2
			c0.7,0,1.3,0.3,1.8,0.7C99.5,204.8,99.8,205.4,99.8,206.1z"/>
		<path class="st26" d="M87,138.5c0,0.2-0.5,0.5-1.1,0.6c-0.7,0.1-1.2,0.1-1.3-0.1c0-0.2,0.5-0.5,1.1-0.6S87,138.3,87,138.5z"/>
		<path class="st26" d="M85.5,140.7c0,0.2-0.3,0.4-0.7,0.5c-0.4,0.1-0.8,0-0.8-0.2c0-0.2,0.3-0.4,0.7-0.5
			C85.1,140.4,85.4,140.5,85.5,140.7z"/>
		<path class="st26" d="M83.5,140.1c0,0.2-0.3,0.4-0.7,0.5c-0.4,0.1-0.8,0-0.9-0.2c0-0.2,0.3-0.4,0.7-0.5
			C83.1,139.9,83.5,139.9,83.5,140.1z"/>
		<path class="st26" d="M70,141.9c0,0.1-0.1,0.2-0.4,0.3c-0.2,0-0.4,0-0.5-0.1c0-0.1,0.1-0.2,0.4-0.3
			C69.7,141.7,69.9,141.8,70,141.9z"/>
		<path class="st26" d="M80.4,138.7c0,0.1-0.1,0.2-0.4,0.3c-0.2,0-0.4,0-0.5-0.1c0-0.1,0.1-0.2,0.4-0.3
			C80.2,138.6,80.4,138.6,80.4,138.7z"/>
		<path class="st26" d="M76.6,142.4c0,0.1-0.1,0.2-0.4,0.3c-0.2,0.1-0.4,0-0.5-0.1c0-0.1,0.1-0.2,0.4-0.3
			C76.4,142.2,76.6,142.3,76.6,142.4z"/>
		<path class="st26" d="M71.6,144.8c0,0.1-0.1,0.2-0.4,0.3c-0.2,0-0.4,0-0.5-0.1c0-0.1,0.1-0.2,0.4-0.3S71.6,144.7,71.6,144.8z"/>
		<path class="st26" d="M67,185.6l-0.2-0.1l-0.2,0.1c0,0-1.5,12-17.9,18h36.2C68.5,197.6,67,185.6,67,185.6z"/>
		<path class="st30" d="M92.1,122.9c0,1.3-11.4,2.4-25.4,2.4s-25.4-1.1-25.4-2.4c0-1.3,11.4-2.4,25.4-2.4S92.1,121.5,92.1,122.9z"/>
		<path class="st29" d="M97.3,119.1H36.1c-0.6,0-1.3,0.3-1.7,0.8c-0.4,0.5-0.7,1.1-0.7,1.7c0,0.6,0.3,1.3,0.7,1.7
			c0.4,0.5,1.1,0.7,1.7,0.8h61.2c0.6,0,1.3-0.3,1.7-0.8c0.4-0.5,0.7-1.1,0.7-1.7c0-0.6-0.3-1.3-0.7-1.7
			C98.5,119.4,97.9,119.1,97.3,119.1z"/>
		<path class="st29" d="M217.8,178.2l25.8,26c0.4,0.5,0.7,1.1,0.7,1.7c0,0.6-0.3,1.2-0.7,1.7c-0.5,0.4-1.1,0.7-1.7,0.7
			c-0.6,0-1.2-0.3-1.7-0.7l-25.8-26L217.8,178.2z"/>
		<path class="st11" d="M217,178.4l26,26.2c0.2,0.2,0.2,0.4,0.2,0.6c0,0.2-0.1,0.4-0.3,0.6c-0.2,0.2-0.4,0.2-0.6,0.2
			c-0.2,0-0.4-0.1-0.6-0.3l-26-26.2L217,178.4z"/>
		<path class="st31" d="M225.4,170.7l-16.2-16.3l-19,18.9l16.2,16.3L225.4,170.7z"/>
		<path class="st32" d="M214.9,160.3l-3.4-3.4l-19,18.9l3.4,3.4L214.9,160.3z"/>
		<path class="st29" d="M207.2,188.3l-15.6-15.7c-0.8-0.8-2.2-0.8-3,0l-0.1,0.1c-0.8,0.8-0.8,2.2,0,3l15.6,15.7c0.8,0.8,2.2,0.8,3,0
			l0.1-0.1C208,190.4,208,189.1,207.2,188.3z"/>
		<path class="st33" d="M203.9,193.2l-17.3-17.4l1.7-0.6l16.2,16.3L203.9,193.2z"/>
		<path class="st29" d="M204.3,193.6l-18.1-18.2c-0.5-0.5-1.2-0.5-1.7,0l-0.2,0.2c-0.5,0.5-0.5,1.2,0,1.7l18.1,18.2
			c0.5,0.5,1.2,0.5,1.7,0l0.2-0.2C204.7,194.8,204.7,194,204.3,193.6z"/>
		<path class="st29" d="M227.1,168.4l-15.6-15.7c-0.8-0.8-2.2-0.8-3,0l-0.1,0.1c-0.8,0.8-0.8,2.2,0,3l15.6,15.7c0.8,0.8,2.2,0.8,3,0
			l0.1-0.1C228,170.6,228,169.2,227.1,168.4z"/>
		<path class="st33" d="M228.9,168.3l-17.3-17.4l-0.6,1.7l16.2,16.3L228.9,168.3z"/>
		<path class="st29" d="M231.2,166.8l-18.1-18.2c-0.5-0.5-1.2-0.5-1.7,0l-0.2,0.2c-0.5,0.5-0.5,1.2,0,1.7l18.1,18.2
			c0.5,0.5,1.2,0.5,1.7,0l0.2-0.2C231.6,168,231.7,167.3,231.2,166.8z"/>
		<path class="st31" d="M179.8,195.8h30.7c2.2,0,4.3,0.9,5.8,2.4c1.5,1.5,2.4,3.6,2.4,5.8h-47.2c0-2.2,0.9-4.3,2.4-5.8
			C175.5,196.7,177.6,195.8,179.8,195.8z"/>
		<path class="st34" d="M218.6,203.5h-47c-0.4,0-0.8,0.4-0.8,0.8v0c0,0.4,0.4,0.8,0.8,0.8h47c0.4,0,0.8-0.4,0.8-0.8v0
			C219.4,203.9,219.1,203.5,218.6,203.5z"/>
		<path class="st29" d="M219.3,204.1h-48.4c-1.3,0-2.3,1-2.3,2.3s1,2.3,2.3,2.3h48.4c1.3,0,2.3-1,2.3-2.3S220.6,204.1,219.3,204.1z"
			/>
		<path class="st27" d="M192.6,197h19.6c0.3,0,0.6,0.1,0.8,0.3c0.2,0.2,0.3,0.5,0.3,0.8c0,0.1,0,0.2-0.1,0.3
			c-0.1,0.1-0.2,0.1-0.3,0.1h-20.3c-0.2,0-0.4-0.1-0.5-0.2c-0.1-0.1-0.2-0.3-0.2-0.5c0-0.2,0.1-0.4,0.2-0.5
			C192.3,197.1,192.4,197,192.6,197L192.6,197z"/>
		<path class="st35" d="M24.4,172.9c0,0,16.7,12.9,32.5,0"/>
		<path class="st35" d="M56.8,172.9c0,0,16.7,12.9,32.5,0"/>
		<path class="st35" d="M89,172.9c0,0,16.7,12.9,32.5,0"/>
		<path class="st36" d="M25,173h-1.1v1.7H25V173z"/>
		<path class="st37" d="M25,173h-1.1v1.7H25V173z"/>
		<path class="st11" d="M25,173.4c0-0.1,0.1-0.2,0.1-0.3c0-0.1,0-0.2-0.1-0.3c-0.1-0.1-0.1-0.2-0.2-0.2c-0.1-0.1-0.2-0.1-0.3-0.1
			c-0.1,0-0.2,0-0.3,0.1c-0.1,0.1-0.2,0.1-0.2,0.2c-0.1,0.1-0.1,0.2-0.1,0.3c0,0.1,0,0.2,0.1,0.3H25z"/>
		<path class="st38" d="M25.1,180h-1.2v33.9h1.2V180z"/>
		<g class="st39">
			<path class="st40" d="M25.1,177.6h-1.2v3.8h1.2V177.6z"/>
		</g>
		<path class="st11" d="M26.1,175.7c0,0.3-0.1,0.6-0.3,0.9c-0.2,0.3-0.4,0.5-0.7,0.6c-0.3,0.1-0.6,0.2-1,0.1
			c-0.3-0.1-0.6-0.2-0.8-0.5c-0.2-0.2-0.4-0.5-0.5-0.8c-0.1-0.3,0-0.7,0.1-1c0.1-0.3,0.3-0.6,0.6-0.7c0.3-0.2,0.6-0.3,0.9-0.3
			c0.4,0,0.9,0.2,1.2,0.5C25.9,174.8,26.1,175.2,26.1,175.7z"/>
		<path class="st41" d="M23,175.8C23,175.9,23,175.9,23,175.8c0.2,0.2,0.4,0.2,0.7,0.2c0.2,0,0.4,0,0.6-0.1c0.2-0.1,0.4-0.2,0.5-0.4
			c0.2-0.2,0.3-0.3,0.4-0.5c0.1-0.2,0.1-0.4,0.1-0.6c0,0,0-0.1,0-0.1c-0.3-0.1-0.5-0.2-0.8-0.2c-0.3,0-0.5,0.1-0.8,0.3
			c-0.2,0.1-0.4,0.4-0.6,0.6C23,175.3,22.9,175.6,23,175.8L23,175.8z"/>
		<path class="st11" d="M25.2,180.4h-1.6l-0.3-3.5h2.2L25.2,180.4z"/>
		<path class="st29" d="M23.8,211.6h1.3c0.1,0.3,0.3,0.5,0.5,0.7c0.2,0.2,0.4,0.4,0.7,0.5l0.5,0.2h-4.6l0.5-0.2
			c0.3-0.1,0.5-0.3,0.7-0.5C23.6,212.2,23.7,211.9,23.8,211.6z"/>
		<path class="st38" d="M21.9,213h5.2c0.1,0,0.2,0,0.3,0.1c0.1,0.1,0.1,0.2,0.1,0.3v0.3h-6v-0.3c0-0.1,0-0.2,0.1-0.3
			C21.6,213,21.7,213,21.9,213z"/>
		<path class="st29" d="M27.9,214h-6.8v-0.4c0,0,0-0.1,0-0.1c0,0,0-0.1,0-0.1c0,0,0,0,0.1,0c0,0,0.1,0,0.1,0h6.3
			c0.1,0,0.1,0,0.2,0.1c0,0,0.1,0.1,0.1,0.2V214z"/>
		<path class="st36" d="M57.4,173h-1.1v1.7h1.1V173z"/>
		<path class="st37" d="M57.4,173h-1.1v1.7h1.1V173z"/>
		<path class="st11" d="M57.4,173.4c0-0.1,0.1-0.2,0.1-0.3s0-0.2-0.1-0.3c0-0.1-0.1-0.2-0.2-0.2c-0.1-0.1-0.2-0.1-0.3-0.1
			c-0.1,0-0.2,0-0.3,0c-0.1,0-0.2,0.1-0.3,0.1c-0.1,0.1-0.1,0.1-0.2,0.2c0,0.1-0.1,0.2-0.1,0.3c0,0.1,0,0.2,0.1,0.3H57.4z"/>
		<path class="st38" d="M57.4,180h-1.2v33.9h1.2V180z"/>
		<g class="st39">
			<path class="st40" d="M57.4,177.6h-1.2v3.8h1.2V177.6z"/>
		</g>
		<path class="st11" d="M58.5,175.7c0,0.3-0.1,0.6-0.3,0.9c-0.2,0.3-0.4,0.5-0.7,0.6c-0.3,0.1-0.6,0.2-1,0.1
			c-0.3-0.1-0.6-0.2-0.8-0.5c-0.2-0.2-0.4-0.5-0.5-0.8c-0.1-0.3,0-0.7,0.1-1c0.1-0.3,0.3-0.6,0.6-0.7c0.3-0.2,0.6-0.3,0.9-0.3
			c0.4,0,0.9,0.2,1.2,0.5C58.3,174.8,58.5,175.2,58.5,175.7z"/>
		<path class="st41" d="M55.3,175.8C55.3,175.9,55.3,175.9,55.3,175.8c0.3,0.2,0.5,0.3,0.8,0.2c0.3,0,0.5-0.1,0.8-0.3
			c0.2-0.1,0.4-0.4,0.6-0.6c0.1-0.2,0.2-0.5,0.2-0.8c0,0,0-0.1,0-0.1c-0.2-0.1-0.4-0.1-0.7-0.1c-0.2,0-0.4,0-0.6,0.1
			c-0.2,0.1-0.4,0.2-0.5,0.4c-0.2,0.2-0.3,0.3-0.4,0.5C55.4,175.4,55.3,175.6,55.3,175.8z"/>
		<path class="st11" d="M57.6,180.4h-1.6l-0.3-3.5H58L57.6,180.4z"/>
		<path class="st29" d="M56.2,211.6h1.3c0.1,0.3,0.3,0.5,0.5,0.7c0.2,0.2,0.4,0.4,0.7,0.5l0.5,0.2h-4.6l0.5-0.2
			c0.3-0.1,0.5-0.3,0.7-0.5C55.9,212.2,56.1,211.9,56.2,211.6z"/>
		<path class="st38" d="M54.2,213h5.2c0.1,0,0.2,0,0.3,0.1c0.1,0.1,0.1,0.2,0.1,0.3v0.3h-6v-0.3c0-0.1,0-0.2,0.1-0.3
			C54,213,54.1,213,54.2,213z"/>
		<path class="st29" d="M60.2,214h-6.8v-0.4c0,0,0-0.1,0-0.1c0,0,0-0.1,0-0.1c0,0,0,0,0.1,0c0,0,0.1,0,0.1,0H60c0,0,0.1,0,0.1,0
			c0,0,0.1,0,0.1,0c0,0,0,0,0,0.1c0,0,0,0.1,0,0.1L60.2,214z"/>
		<path class="st36" d="M89.7,173h-1.1v1.7h1.1V173z"/>
		<path class="st37" d="M89.7,173h-1.1v1.7h1.1V173z"/>
		<path class="st11" d="M89.8,173.4c0-0.1,0.1-0.2,0.1-0.3c0-0.1,0-0.2-0.1-0.3c0-0.1-0.1-0.2-0.2-0.2c-0.1-0.1-0.2-0.1-0.3-0.1
			c-0.1,0-0.2,0-0.3,0c-0.1,0-0.2,0.1-0.3,0.1c-0.1,0.1-0.1,0.1-0.2,0.2c0,0.1-0.1,0.2-0.1,0.3c0,0.1,0,0.2,0.1,0.3H89.8z"/>
		<path class="st38" d="M89.8,180h-1.2v33.9h1.2V180z"/>
		<g class="st39">
			<path class="st40" d="M89.8,177.6h-1.2v3.8h1.2V177.6z"/>
		</g>
		<path class="st11" d="M90.9,175.7c0,0.3-0.1,0.6-0.3,0.9c-0.2,0.3-0.4,0.5-0.7,0.6c-0.3,0.1-0.6,0.2-1,0.1
			c-0.3-0.1-0.6-0.2-0.8-0.5c-0.2-0.2-0.4-0.5-0.5-0.8c-0.1-0.3,0-0.7,0.1-1c0.1-0.3,0.3-0.6,0.6-0.7c0.3-0.2,0.6-0.3,0.9-0.3
			c0.4,0,0.9,0.2,1.2,0.5C90.7,174.8,90.9,175.2,90.9,175.7z"/>
		<path class="st41" d="M87.7,175.8C87.7,175.9,87.7,175.9,87.7,175.8c0.3,0.2,0.5,0.3,0.8,0.2c0.3,0,0.5-0.1,0.8-0.3
			c0.2-0.1,0.4-0.4,0.6-0.6c0.1-0.2,0.2-0.5,0.2-0.8c0,0,0-0.1,0-0.1c-0.2-0.1-0.4-0.1-0.7-0.1c-0.2,0-0.4,0-0.6,0.1
			c-0.2,0.1-0.4,0.2-0.5,0.4s-0.3,0.3-0.4,0.5C87.7,175.4,87.7,175.6,87.7,175.8z"/>
		<path class="st11" d="M90,180.4h-1.5l-0.3-3.5h2.2L90,180.4z"/>
		<path class="st29" d="M88.5,211.6h1.3c0.1,0.3,0.3,0.5,0.5,0.7c0.2,0.2,0.4,0.4,0.7,0.5l0.5,0.2h-4.6l0.5-0.2
			c0.3-0.1,0.5-0.3,0.7-0.5C88.3,212.2,88.4,211.9,88.5,211.6z"/>
		<path class="st38" d="M86.6,213h5.2c0.1,0,0.2,0,0.3,0.1c0.1,0.1,0.1,0.2,0.1,0.3v0.3h-6v-0.3c0-0.1,0-0.2,0.1-0.3
			C86.4,213,86.5,213,86.6,213z"/>
		<path class="st29" d="M92.6,214h-6.8v-0.4c0,0,0-0.1,0-0.1c0,0,0-0.1,0-0.1c0,0,0,0,0.1,0c0,0,0.1,0,0.1,0h6.3c0,0,0.1,0,0.1,0
			c0,0,0.1,0,0.1,0c0,0,0,0,0,0.1c0,0,0,0.1,0,0.1V214z"/>
		<path class="st36" d="M122.1,173H121v1.7h1.1V173z"/>
		<path class="st37" d="M122.1,173H121v1.7h1.1V173z"/>
		<path class="st11" d="M122.1,173.4c0-0.1,0.1-0.2,0.1-0.3c0-0.1,0-0.2-0.1-0.3c0-0.1-0.1-0.2-0.2-0.2c-0.1-0.1-0.2-0.1-0.3-0.1
			s-0.2,0-0.3,0c-0.1,0-0.2,0.1-0.3,0.1c-0.1,0.1-0.1,0.1-0.2,0.2s-0.1,0.2-0.1,0.3s0,0.2,0.1,0.3H122.1z"/>
		<path class="st38" d="M122.2,180H121v33.9h1.2V180z"/>
		<g class="st39">
			<path class="st40" d="M122.2,177.6H121v3.8h1.2V177.6z"/>
		</g>
		<path class="st11" d="M123.2,175.7c0,0.3-0.1,0.6-0.3,0.9c-0.2,0.3-0.4,0.5-0.7,0.6c-0.3,0.1-0.6,0.2-1,0.1
			c-0.3-0.1-0.6-0.2-0.8-0.5c-0.2-0.2-0.4-0.5-0.5-0.8c-0.1-0.3,0-0.7,0.1-1c0.1-0.3,0.3-0.6,0.6-0.7c0.3-0.2,0.6-0.3,0.9-0.3
			c0.4,0,0.9,0.2,1.2,0.5C123,174.8,123.2,175.2,123.2,175.7z"/>
		<path class="st41" d="M120.1,175.8C120.1,175.9,120.1,175.9,120.1,175.8c0.3,0.2,0.5,0.3,0.8,0.2c0.3,0,0.5-0.1,0.8-0.3
			c0.2-0.1,0.4-0.4,0.6-0.6c0.1-0.2,0.2-0.5,0.2-0.8c0,0,0-0.1,0-0.1c-0.3-0.1-0.5-0.2-0.8-0.2c-0.3,0-0.5,0.1-0.8,0.3
			c-0.2,0.1-0.4,0.4-0.6,0.6C120.1,175.3,120.1,175.6,120.1,175.8z"/>
		<path class="st11" d="M122.3,180.4h-1.6l-0.3-3.5h2.2L122.3,180.4z"/>
		<path class="st29" d="M120.9,211.6h1.3c0.1,0.3,0.3,0.5,0.5,0.7c0.2,0.2,0.4,0.4,0.7,0.5l0.5,0.2h-4.6l0.5-0.2
			c0.3-0.1,0.5-0.3,0.7-0.5C120.7,212.2,120.8,211.9,120.9,211.6z"/>
		<path class="st38" d="M119,213h5.2c0.1,0,0.2,0,0.3,0.1c0.1,0.1,0.1,0.2,0.1,0.3v0.3h-6v-0.3c0-0.1,0-0.2,0.1-0.3
			C118.8,213,118.9,213,119,213z"/>
		<path class="st29" d="M125,214h-6.8v-0.4c0,0,0-0.1,0-0.1c0,0,0-0.1,0-0.1c0,0,0,0,0.1,0c0,0,0.1,0,0.1,0h6.3c0,0,0.1,0,0.1,0
			c0,0,0.1,0,0.1,0c0,0,0,0,0,0.1c0,0,0,0.1,0,0.1V214z"/>
		<path class="st42" d="M121.9,73.9c0.6,0.6,1.4,1,2.2,1.1c1,0.1,2.3-0.5,2.6-1.6c-0.7,0-0.6-0.9-0.6-1.4c0-0.5,0-0.9,0-1.4
			c0-0.3,0-0.5,0-0.5l-3.9-2.5c0.2,1.2,0.3,2.4,0.3,3.5c0,0.8,0,2.1-1.2,2.1C121.6,73.5,121.7,73.7,121.9,73.9z"/>
		<path class="st43" d="M123.8,69.8c0.6,0.9,1.4,1.6,2.3,2.2c0-0.5,0-0.9,0-1.4L123.8,69.8z"/>
		<path class="st42" d="M129.2,64.9c0,0,0.5,5.6-1.5,6.9c-0.9,0.6-3.9-2-3.9-2s-2-1.7-1.6-3.7C122.7,62.3,128.6,61.1,129.2,64.9z"/>
		<path class="st44" d="M130.2,62.7c-0.1,0-0.5,0.3-2.1-0.9c-0.5-0.3-1-0.5-1.5-0.6s-1.1,0-1.6,0.1c-0.3,0.1-0.6,0.2-0.9,0.4
			c-0.3,0.2-0.5,0.5-0.6,0.8c-0.3,0-0.6,0-0.9,0.1c-0.3,0.1-0.5,0.3-0.7,0.6c-1.6,2,0.5,6.7,0.8,6.8c0.3,0.1-0.3-3.1,1-3
			c0.8,0,1,1.4,1.2,1.3c0.1-0.1,0-1.7,0.1-2c0.1-0.1,0.1-0.1,0.2-0.2c0.1,0,0.2-0.1,0.3,0c0.6,0.1,0.5-0.9,1-1.1
			c0.6-0.1,1.3-0.1,1.9,0.1C130.8,65.8,131.1,63.3,130.2,62.7z"/>
		<path class="st43" d="M123.4,67.6c0.1,0,0.3-0.1,0.4,0.2c0.1,0.3,0,0.3,0,0.4c0,0.2,0.1,0.2,0.2,0.3c0,0.1,0,0.5-0.3,0.4
			c-0.3-0.1-0.4-0.5-0.4-0.7C123.2,68.2,123.2,67.7,123.4,67.6z"/>
		<path class="st45" d="M119,91.7c0,0,6.2,0.7,7.7,0.7s1.4-0.7,1.4-0.7c0.1-1.6,0.3-5.3,0.6-6.6c0.3-1.2,0.4-1.6,0.6-2.7
			c0.5-2.5,0.5-3,1.1-6l-3.7-3c-0.2,0.4-0.4,0.7-0.8,0.9c-0.3,0.2-0.8,0.3-1.2,0.3c-2.1,0-2.7-1.4-2.7-1.4l-5.1,3.4l-0.5,8.2
			l1.9,6.3"/>
		<path class="st46" d="M136.2,112.7c-0.1,0.5-0.2,1.1-0.4,1.6c-0.2,0.4-1.5,0-1.6-0.2c-0.1-0.3,0.4-2.2,0.4-2.2"/>
		<path class="st47" d="M133.8,114.4c-0.1,0.4-0.3,1.3-0.3,1.3l1.3,0.6l0.2-0.2c0.2,0.2,0.5,0.4,0.7,0.6c0.4,0.2,0.9,0.3,1.3,0.4
			c1.2,0.1,2-0.1,2.1-0.3c0.3-0.7-1.3-0.9-1.6-0.9c-0.4-0.1-0.7-0.3-0.9-0.5c-0.3-0.3-0.4-0.6-0.5-0.9c-0.1-0.4,0-0.4-0.2-0.4
			c-0.1,0-0.1,0-0.2,0c-0.1,0-0.1,0.1-0.2,0.1c-0.1,0.1-0.3,0.2-0.4,0.3c-0.2,0-0.3,0-0.5,0c-0.2-0.1-0.4-0.2-0.5-0.4
			c-0.1,0-0.2,0.1-0.3,0.2C133.9,114.2,133.8,114.3,133.8,114.4z"/>
		<path class="st44" d="M130.3,97.1c2.1,0.4,4.6,0.7,6.8,0.4c-0.3,0.9-0.9,1.7-1.2,2.9c-0.9,4-1.2,9.3-1.5,12.6c0,0,0.4,0.8,1.9,0.2
			c2.1-5.2,5.8-15.7,5.7-18c0-2.9-7.3-3.6-12.6-4.3"/>
		<g class="st2">
			<g class="st2">
				<path class="st48" d="M121,91.2c-1.7,1.2,9.3,5.8,9.3,5.8c1.2,0.2,2.4,0.3,3.6,0.3c0.1-0.2,0.2-0.4,0.3-0.7c0.1-0.3,0-0.7,0.1-1
					c0.1-0.3,0.2-0.6,0.4-0.9c0.2-0.3,0.4-0.5,0.7-0.6c0.6-0.3,1.2-0.5,1.8-0.6c1.4-0.1,2.7-0.2,4.1-0.1c-3.3-2.4-9.7-1.9-12.8-2.1
					C127.8,92.5,121.3,91.1,121,91.2z"/>
			</g>
		</g>
		<g class="st49">
			<g class="st49">
				<path class="st50" d="M135.3,113.8c0,0.3-0.1,0.6-0.2,0.8h0.1c0.2,0,0.1,0.1,0.2,0.4c0.1,0.4,0.3,0.7,0.5,0.9
					c0.3,0.3,0.6,0.4,0.9,0.5c0.3,0.1,1.9,0.3,1.6,0.9c-0.1,0.2-0.9,0.4-2.1,0.3c-0.4-0.1-0.9-0.2-1.3-0.4c-0.3-0.1-0.5-0.4-0.7-0.6
					L134,117l-1.3-0.6c0,0,0.1-0.8,0.3-1.3c0-0.1,0.1-0.2,0.2-0.3c0.1-0.1,0.2-0.1,0.3-0.2c0-0.3,0.1-0.6,0.2-1c0,0,0,0-0.1-0.1
					c0.2-3.3,0.6-8.6,1.5-12.6c0.2-0.6,0.4-1.2,0.7-1.8c0.2-0.4,0.4-0.7,0.5-1.1c-1,0.1-2.1,0.1-3.1,0.1c0,0.3,0,0.7,0,1
					c-0.2,4.7-1,11.7-0.9,17.2c-0.1,0.1-0.2,0.1-0.3,0.1c0,0.3,0,0.6,0,0.8h0.1c0.2,0,0.1,0,0.2,0.4c0.2,0.3,0.4,0.6,0.7,0.8
					c0.3,0.2,0.7,0.3,1,0.4c0.3,0,1.9-0.1,1.7,0.7c0,0.2-0.9,0.5-2,0.6c-0.5,0-0.9,0-1.3-0.1c-0.3-0.1-0.6-0.3-0.8-0.5l-0.2,0.2
					l-1.4-0.3c0,0,0-0.9,0-1.3c0-0.1,0-0.2,0.1-0.3c0.1-0.1,0.2-0.2,0.3-0.2c0-0.3,0-0.7,0-1c-0.1,0-0.3-0.1-0.4-0.1
					c-0.4-3.8-2.5-12.4-1.4-17.2c0.1-0.4,0.2-0.7,0.3-1.1c-3.9,0.5-7.3,1-10.9-0.2c-0.3-0.1-0.6-0.3-0.9-0.6h24
					c-0.1,0.5-0.3,1.1-0.5,1.8C139.3,103.5,136.9,110.1,135.3,113.8L135.3,113.8z"/>
			</g>
		</g>
		<path class="st46" d="M132.8,115.5c0,0.5,0,1.1-0.1,1.6c-0.1,0.4-1.5,0.3-1.6,0s0-2.3,0-2.3"/>
		<path class="st47" d="M130.7,117.6c0,0.5,0,1.3,0,1.3l1.4,0.3l0.2-0.2c0.2,0.2,0.5,0.4,0.8,0.5c0.4,0.1,0.9,0.1,1.3,0.1
			c1.2-0.1,2-0.4,2-0.6c0.2-0.7-1.4-0.6-1.7-0.7c-0.4,0-0.7-0.2-1-0.4c-0.3-0.2-0.5-0.5-0.7-0.8c-0.1-0.3-0.1-0.4-0.2-0.4
			c-0.1,0-0.1,0-0.2,0.1c-0.1,0-0.1,0.1-0.1,0.1c-0.1,0.1-0.2,0.3-0.4,0.3c-0.2,0.1-0.3,0.1-0.5,0c-0.2,0-0.4-0.2-0.5-0.3
			c-0.1,0-0.2,0.1-0.3,0.2C130.7,117.4,130.7,117.5,130.7,117.6z"/>
		<path class="st44" d="M117.4,91c-0.3,0.8-0.5,1.7-0.6,2.5c-0.1,0.7,0,1.5,0.3,2.2c0.2,0.4,0.4,0.8,0.7,1.1
			c0.3,0.3,0.7,0.5,1.1,0.7c1,0.3,2.1,0.5,3.2,0.6c2.2,0.1,4.4,0,6.5-0.4l1-0.1c-1.7,4.5,0.7,14.2,1.1,18.3c1.5,0.7,2.4,0,2.4,0
			c-0.2-8.3,1.7-20,0.6-22c-0.7-1.2-8.9-2.8-9-2.8"/>
		<path class="st45" d="M134.6,88.9c-2.2-3.1-3.3-5.6-5.2-8.9l-2.6-6.6l1.1,0.1c0.7,0,1.5,0.2,2.2,0.4c1.1,0.3,2,1.1,2.5,2.1
			c0.4,0.9,0.7,1.8,1.1,2.7c0.4,1,0.9,2,1.3,3c0.9,2,1.8,4,2.5,6"/>
		<g class="st49">
			<path class="st51" d="M129.7,80.6l0.4-2.1l2.6,5.7l-0.9,0.2L129.7,80.6z"/>
		</g>
		<path d="M116.9,76.4c-0.4,5.1-0.3,10.6,0.8,15.6c0,0.1,0.3,0.1,0.3,0c-0.3-2.6-0.7-5.1-0.8-7.8c-0.1-2.6-0.1-5.2,0-7.8
			C117.2,76.2,116.9,76.2,116.9,76.4L116.9,76.4z"/>
		<path class="st52" d="M140.6,91.6h-20.1v0.7h20.1V91.6z"/>
		<path class="st52" d="M144.2,92.3h-16.1l2.9-9.4c0.1-0.3,0.2-0.5,0.5-0.6c0.2-0.2,0.5-0.2,0.7-0.2h14.1c0.1,0,0.2,0,0.4,0.1
			c0.1,0.1,0.2,0.1,0.3,0.2c0.1,0.1,0.1,0.2,0.1,0.3c0,0.1,0,0.3,0,0.4L144.2,92.3z"/>
		<path class="st53" d="M144.4,92.3h-15.9l2.9-9.4c0.1-0.3,0.2-0.5,0.4-0.6c0.2-0.2,0.5-0.2,0.7-0.2h14.1c0.1,0,0.2,0,0.4,0.1
			c0.1,0.1,0.2,0.1,0.3,0.2c0.1,0.1,0.1,0.2,0.1,0.3c0,0.1,0,0.3,0,0.4l-2.8,9c0,0.1-0.1,0.1-0.1,0.2
			C144.5,92.3,144.4,92.3,144.4,92.3z"/>
		<g class="st49">
			<g class="st49">
				<path class="st51" d="M119.3,78.1c0.8,3.7,1.2,8.1,1.4,10.8c3.1,0.2,4,1.4,6.8,2.7c0,0,2.3-0.4,2.5,0.5c0.1,0.5-2.6,0.9-2.6,0.9
					c-2.6,0-9-1.2-9.5-1.4c-0.5-0.1-2.4-9.7-2.5-14.5c-0.1-0.7,0.1-1.4,0.4-2c0.2-0.3,0.5-0.5,0.9-0.6c1.6-0.9,3.5-1.3,5.3-1.3"/>
			</g>
		</g>
		<path class="st46" d="M127.1,92.2c0.2-0.2,0.4-0.3,0.7-0.4c0.2-0.1,0.5-0.1,0.8-0.1c0.4,0,0.7,0,1.1,0.1c0.2,0,0.4,0.1,0.4,0.2
			s-0.8,0-1.3,0.1c0.9,0.1,1.7,0.1,2.6,0.1c0.1,0,0.2,0,0.3,0c0,0,0.1,0,0.1,0.1c0,0,0,0.1,0,0.1c0,0.1-0.1,0.1-0.1,0.2
			c-0.3,0.2-0.6,0.3-0.9,0.4c-1.3,0.3-2.7,0.2-3.9-0.3"/>
		<path class="st45" d="M119.4,78.1c0.1,4,0.6,7.7,0.6,11.7c3.1,0.2,4.7,0.8,7.5,2.1c0.1,0.3,0.1,0.7-0.1,1c-0.2,0.1-9.3-0.3-10.1-1
			c-0.7-0.6-1.9-10.1-1.9-14.9c-0.1-0.7,0.1-1.4,0.4-2c0.2-0.3,0.5-0.5,0.9-0.6c1.6-0.9,3.5-1.3,5.3-1.3"/>
		<path class="st9" d="M137.1,86.9c0,0.3,0.1,0.7,0.3,0.9c0.2,0.3,0.4,0.5,0.8,0.6c0.3,0.1,0.6,0.2,1,0.1c0.3-0.1,0.6-0.2,0.9-0.5
			c0.2-0.2,0.4-0.5,0.5-0.9c0.1-0.3,0-0.7-0.1-1c-0.1-0.3-0.3-0.6-0.6-0.8c-0.3-0.2-0.6-0.3-0.9-0.3c-0.4,0-0.9,0.2-1.2,0.5
			C137.2,86,137.1,86.5,137.1,86.9z"/>
		<g class="st54">
			<path class="st55" d="M133.3,40.9l0.6,0c0.1,0,0.1,0,0.1,0.1c0,0,0.1,0.1,0.1,0.1c0,0.1,0,0.1,0,0.2c0,0-0.1,0.1-0.1,0.1l-0.6,0
				c0,0-0.1,0-0.1,0c0,0-0.1,0-0.1,0c0,0-0.1-0.1-0.1-0.2c0-0.1,0-0.1,0.1-0.2C133.2,40.9,133.3,40.8,133.3,40.9L133.3,40.9z"/>
			<path class="st55" d="M134.8,40.8c0.4,0,0.8,0.1,1.2,0.1c0.1,0,0.1,0,0.1,0.1c0,0,0,0.1,0,0.2c0,0,0,0.1,0,0.1c0,0,0,0-0.1,0.1
				c0,0,0,0-0.1,0c0,0-0.1,0-0.1,0c-0.4-0.1-0.8-0.1-1.2-0.1c-0.1,0-0.1,0-0.2-0.1c0,0-0.1-0.1-0.1-0.2c0-0.1,0-0.1,0.1-0.2
				C134.7,40.8,134.8,40.8,134.8,40.8L134.8,40.8z"/>
			<path class="st55" d="M137,41.1c0.4,0.1,0.8,0.2,1.2,0.3c0,0,0,0,0.1,0c0,0,0,0,0.1,0.1c0,0,0,0.1,0,0.1c0,0,0,0.1,0,0.1
				c0,0,0,0.1,0,0.1c0,0,0,0-0.1,0.1c0,0-0.1,0-0.1,0c0,0-0.1,0-0.1,0c-0.4-0.1-0.8-0.2-1.2-0.3c0,0-0.1,0-0.1,0c0,0,0,0-0.1-0.1
				c0,0,0,0,0-0.1c0,0,0-0.1,0-0.1c0-0.1,0-0.1,0.1-0.1C136.9,41.1,136.9,41.1,137,41.1z"/>
			<path class="st55" d="M139.1,41.7c0.4,0.1,0.8,0.3,1.1,0.5c0,0,0.1,0.1,0.1,0.1c0,0.1,0,0.1,0,0.2c0,0-0.1,0.1-0.1,0.1
				c-0.1,0-0.1,0-0.2,0c-0.4-0.2-0.7-0.3-1.1-0.5c0,0,0,0-0.1,0c0,0,0,0,0-0.1c0,0,0-0.1,0-0.1c0,0,0-0.1,0-0.1
				c0-0.1,0.1-0.1,0.1-0.1S139,41.7,139.1,41.7L139.1,41.7z"/>
			<path class="st55" d="M141,42.6c0.4,0.2,0.7,0.4,1,0.7c0,0,0,0,0.1,0.1c0,0,0,0,0,0.1c0,0,0,0.1,0,0.1c0,0,0,0,0,0.1
				c0,0-0.1,0.1-0.1,0.1c-0.1,0-0.1,0-0.1,0c-0.3-0.2-0.7-0.5-1-0.6c0,0,0,0-0.1-0.1c0,0,0,0,0-0.1c0,0,0-0.1,0-0.1c0,0,0-0.1,0-0.1
				c0,0,0,0,0.1-0.1c0,0,0,0,0.1,0C140.9,42.6,140.9,42.6,141,42.6C141,42.6,141,42.6,141,42.6L141,42.6z"/>
			<path class="st55" d="M142.8,43.9c0.3,0.3,0.6,0.6,0.8,0.9c0,0,0,0.1,0,0.1c0,0,0,0.1-0.1,0.1c0,0,0,0-0.1,0c0,0,0,0-0.1,0
				c0,0,0,0-0.1,0c0,0,0,0-0.1,0c-0.2-0.3-0.5-0.6-0.8-0.9c0,0-0.1-0.1-0.1-0.1s0-0.1,0-0.1c0,0,0.1-0.1,0.1-0.1
				C142.7,43.8,142.8,43.9,142.8,43.9L142.8,43.9z"/>
			<path class="st55" d="M144.1,45.6c0.2,0.4,0.4,0.8,0.5,1.2c0,0,0,0.1,0,0.1c0,0-0.1,0.1-0.1,0.1c0,0-0.1,0-0.1,0
				c0,0-0.1-0.1-0.1-0.1c-0.1-0.4-0.3-0.7-0.5-1.1c0,0,0-0.1,0-0.1c0,0,0-0.1,0.1-0.1c0,0,0.1,0,0.1,0
				C144.1,45.5,144.1,45.5,144.1,45.6L144.1,45.6z"/>
			<path class="st55" d="M144.8,47.7c0,0.4,0,0.8,0,1.2c0,0,0,0.1-0.1,0.1c0,0-0.1,0-0.1,0c0,0,0,0-0.1,0c0,0,0,0,0,0c0,0,0,0,0-0.1
				c0,0,0,0,0-0.1c0.1-0.4,0.1-0.8,0-1.2c0,0,0-0.1,0-0.1c0,0,0.1-0.1,0.1-0.1c0,0,0.1,0,0.1,0C144.8,47.6,144.8,47.6,144.8,47.7
				L144.8,47.7z"/>
			<path class="st55" d="M144.6,49.9c-0.1,0.4-0.3,0.8-0.5,1.2c0,0,0,0,0,0.1c0,0,0,0-0.1,0c0,0,0,0-0.1,0c0,0,0,0-0.1,0
				c0,0,0,0-0.1,0s0,0,0-0.1c0,0,0,0,0-0.1c0,0,0,0,0-0.1c0.2-0.4,0.3-0.7,0.4-1.1c0,0,0,0,0-0.1c0,0,0,0,0.1,0c0,0,0,0,0.1,0
				c0,0,0,0,0.1,0c0,0,0,0,0.1,0c0,0,0,0,0,0.1C144.5,49.7,144.5,49.8,144.6,49.9C144.6,49.8,144.5,49.8,144.6,49.9L144.6,49.9z"/>
			<path class="st55" d="M143.6,51.8c-0.2,0.3-0.5,0.7-0.7,1c0,0-0.1,0-0.1,0c0,0-0.1,0-0.1,0c0,0,0-0.1,0-0.1c0,0,0-0.1,0-0.1
				c0.3-0.3,0.5-0.6,0.7-1c0,0,0,0,0-0.1c0,0,0,0,0.1,0c0,0,0,0,0.1,0c0,0,0,0,0.1,0c0,0,0,0,0,0c0,0,0,0,0,0.1
				C143.7,51.7,143.7,51.7,143.6,51.8C143.7,51.7,143.7,51.8,143.6,51.8L143.6,51.8z"/>
			<path class="st55" d="M142.3,53.5c-0.3,0.3-0.6,0.5-1,0.8c0,0,0,0-0.1,0c0,0,0,0-0.1,0c0,0,0,0-0.1,0c0,0,0,0,0,0c0,0,0,0,0-0.1
				c0,0,0,0,0-0.1c0,0,0,0,0-0.1c0,0,0,0,0,0c0.3-0.2,0.6-0.5,0.9-0.7c0,0,0.1,0,0.1,0c0,0,0.1,0,0.1,0.1c0,0,0,0.1,0,0.1
				C142.3,53.4,142.3,53.4,142.3,53.5L142.3,53.5z"/>
			<path class="st55" d="M140.5,54.7c-0.4,0.2-0.7,0.3-1.1,0.5c0,0-0.1,0-0.1,0c0,0-0.1,0-0.1-0.1c0,0,0-0.1,0-0.1
				c0,0,0-0.1,0.1-0.1c0.4-0.1,0.7-0.3,1.1-0.5c0,0,0,0,0.1,0s0,0,0.1,0c0,0,0,0,0.1,0c0,0,0,0,0,0c0,0,0,0,0,0.1
				C140.6,54.6,140.6,54.6,140.5,54.7C140.6,54.6,140.5,54.6,140.5,54.7C140.5,54.7,140.5,54.7,140.5,54.7L140.5,54.7z"/>
			<path class="st55" d="M138.5,55.4c-0.4,0.1-0.8,0.1-1.2,0.1c0,0-0.1,0-0.1,0c0,0,0-0.1,0-0.1c0,0,0-0.1,0-0.1c0,0,0.1,0,0.1,0
				c0.4,0,0.8-0.1,1.2-0.1c0,0,0,0,0.1,0c0,0,0,0,0.1,0c0,0,0,0,0,0c0,0,0,0,0,0.1c0,0,0,0,0,0.1C138.6,55.3,138.6,55.4,138.5,55.4
				C138.5,55.4,138.5,55.4,138.5,55.4C138.5,55.4,138.5,55.4,138.5,55.4z"/>
			<path class="st55" d="M136.3,55.5c-0.4-0.1-0.8-0.3-1.1-0.5c0,0,0,0,0,0c0,0,0,0,0,0c0,0,0,0,0-0.1c0,0,0,0,0,0c0,0,0.1,0,0.1,0
				c0,0,0.1,0,0.1,0c0.3,0.2,0.7,0.4,1,0.5c0,0,0.1,0,0.1,0.1c0,0,0,0.1,0,0.1c0,0,0,0,0,0c0,0,0,0,0,0
				C136.4,55.5,136.4,55.5,136.3,55.5C136.3,55.5,136.3,55.5,136.3,55.5L136.3,55.5z"/>
			<path class="st55" d="M134.5,54.2c-0.2-0.4-0.4-0.8-0.5-1.2c0,0,0-0.1,0-0.1c0,0,0,0,0.1-0.1c0,0,0,0,0,0c0,0,0,0,0,0
				c0,0,0,0,0,0c0,0,0,0,0,0c0.1,0.4,0.2,0.8,0.4,1.1c0,0,0,0.1,0,0.1c0,0,0,0.1-0.1,0.1C134.6,54.3,134.6,54.3,134.5,54.2
				C134.5,54.3,134.5,54.3,134.5,54.2L134.5,54.2z"/>
			<path class="st55" d="M134,52.1c0.1-0.4,0.3-0.8,0.5-1.1c0,0,0,0,0,0c0,0,0,0,0,0c0,0,0,0,0,0c0,0,0,0,0,0c0,0,0,0,0,0
				c0,0,0,0,0,0c0,0,0,0,0,0c0,0,0,0,0,0c-0.2,0.3-0.4,0.7-0.5,1c0,0,0,0,0,0c0,0,0,0,0,0c0,0,0,0,0,0c0,0,0,0,0,0
				C134.1,52.2,134.1,52.2,134,52.1C134.1,52.2,134.1,52.1,134,52.1L134,52.1z"/>
			<path class="st55" d="M135.2,50.3c0.3-0.3,0.7-0.5,1-0.7c0,0,0,0,0,0c0,0,0,0,0,0c0,0,0,0,0,0c0,0,0,0,0,0c0,0,0,0,0,0s0,0,0,0
				c0,0,0,0,0,0c0,0,0,0,0,0c-0.4,0.2-0.7,0.4-1,0.6c0,0,0,0-0.1,0c0,0-0.1,0-0.1,0C135.2,50.5,135.2,50.4,135.2,50.3
				C135.2,50.4,135.2,50.4,135.2,50.3L135.2,50.3z"/>
			<path class="st55" d="M137.1,49.3c0.4-0.1,0.8-0.2,1.2-0.3c0,0,0.1,0,0.1,0c0,0,0,0,0,0.1c0,0,0,0.1,0,0.1c0,0,0,0-0.1,0
				c-0.4,0.1-0.8,0.2-1.2,0.3c0,0-0.1,0-0.1,0c0,0,0,0-0.1-0.1C137.1,49.4,137.1,49.4,137.1,49.3C137.1,49.3,137.1,49.3,137.1,49.3z
				"/>
			<path class="st55" d="M139.2,48.8c0.4,0,0.8-0.1,1.2,0c0,0,0,0,0.1,0c0,0,0,0,0,0.1s0,0,0,0.1c0,0,0,0-0.1,0c-0.4,0-0.8,0-1.2,0
				c0,0,0,0,0,0c0,0,0,0,0,0s0,0,0,0c0,0,0,0,0,0C139.1,48.9,139.1,48.9,139.2,48.8C139.1,48.9,139.2,48.9,139.2,48.8
				C139.2,48.9,139.2,48.9,139.2,48.8C139.2,48.8,139.2,48.8,139.2,48.8z"/>
			<path class="st55" d="M141.4,48.9c0.4,0,0.8,0.1,1.2,0.2c0,0,0,0,0.1,0c0,0,0,0,0,0.1c0,0,0,0,0,0c0,0,0,0,0,0c0,0,0,0,0,0
				c0,0,0,0,0,0c-0.4-0.1-0.8-0.2-1.2-0.2c0,0,0,0,0,0c0,0,0,0,0,0c0,0,0,0,0,0C141.3,49,141.3,49,141.4,48.9
				C141.3,48.9,141.3,48.9,141.4,48.9C141.3,48.9,141.3,48.9,141.4,48.9C141.3,48.9,141.3,48.9,141.4,48.9
				C141.4,48.9,141.4,48.9,141.4,48.9z"/>
			<path class="st55" d="M143.5,49.4c0.4,0.1,0.8,0.3,1.1,0.5c0,0,0,0,0,0c0,0,0,0,0,0c0,0,0,0,0,0c0,0,0,0,0,0c0,0,0,0,0,0
				c0,0,0,0,0,0c0,0,0,0,0,0c0,0,0,0,0,0c-0.4-0.2-0.7-0.3-1.1-0.5c0,0,0,0,0,0c0,0,0,0,0-0.1C143.4,49.4,143.4,49.4,143.5,49.4
				C143.4,49.4,143.4,49.4,143.5,49.4C143.4,49.4,143.4,49.4,143.5,49.4C143.4,49.4,143.5,49.4,143.5,49.4L143.5,49.4z"/>
			<path class="st55" d="M145.4,50.3c0.3,0.2,0.6,0.5,0.9,0.8c0,0,0,0,0,0c0,0,0,0,0,0c0,0,0,0,0,0c0,0,0,0,0,0
				c-0.3-0.3-0.6-0.5-0.9-0.7c0,0,0,0,0,0c0,0,0,0,0,0c0,0,0,0,0,0C145.3,50.3,145.3,50.3,145.4,50.3
				C145.3,50.3,145.3,50.3,145.4,50.3C145.3,50.3,145.4,50.3,145.4,50.3L145.4,50.3z"/>
			<path class="st55" d="M147,51.8c0.3,0.3,0.5,0.6,0.7,1c0,0,0,0,0,0c0,0,0,0,0,0c0,0,0,0,0,0c0,0,0,0,0,0c-0.2-0.3-0.4-0.7-0.7-1
				C146.9,51.9,146.9,51.9,147,51.8c-0.1,0.1-0.1,0.1-0.1,0.1C146.9,51.8,146.9,51.8,147,51.8C146.9,51.8,146.9,51.8,147,51.8
				C146.9,51.8,146.9,51.8,147,51.8C146.9,51.8,146.9,51.8,147,51.8C146.9,51.8,146.9,51.8,147,51.8C147,51.8,147,51.8,147,51.8
				L147,51.8z"/>
			<path class="st55" d="M148.1,53.6c0.2,0.4,0.3,0.7,0.5,1.1c0,0,0,0,0,0c0,0,0,0,0,0c0,0,0,0,0,0c0,0,0,0,0,0c0,0,0,0,0,0
				c0,0,0,0,0,0c0,0,0,0,0,0c0,0,0,0,0,0c-0.1-0.4-0.3-0.8-0.5-1.1c0,0,0,0,0,0C148,53.6,148,53.5,148.1,53.6
				C148.1,53.5,148.1,53.5,148.1,53.6C148.1,53.5,148.1,53.5,148.1,53.6L148.1,53.6z"/>
			<path class="st55" d="M148.8,55.6c0.1,0.4,0.2,0.8,0.2,1.2c0,0,0,0,0,0s0,0,0,0c0,0,0,0,0,0c0,0,0,0,0,0c0,0,0,0-0.1,0
				C148.9,56.4,148.8,56,148.8,55.6c-0.1,0-0.1,0-0.1,0C148.7,55.6,148.7,55.6,148.8,55.6C148.7,55.5,148.8,55.5,148.8,55.6
				C148.8,55.5,148.8,55.5,148.8,55.6C148.8,55.5,148.8,55.5,148.8,55.6C148.8,55.5,148.8,55.5,148.8,55.6
				C148.8,55.6,148.8,55.6,148.8,55.6C148.8,55.6,148.8,55.6,148.8,55.6L148.8,55.6z"/>
			<path class="st55" d="M149.1,57.7c0,0.4,0,0.8-0.1,1.2c0,0,0,0,0,0c0,0,0,0,0,0c0,0,0,0,0,0c0,0,0,0,0,0c0,0,0,0,0,0c0,0,0,0,0,0
				C149,58.5,149,58.1,149.1,57.7C149,57.7,149,57.7,149.1,57.7C149,57.7,149,57.7,149.1,57.7C149,57.7,149,57.7,149.1,57.7
				C149,57.7,149,57.7,149.1,57.7C149.1,57.7,149.1,57.7,149.1,57.7C149.1,57.7,149.1,57.7,149.1,57.7z"/>
			<path class="st55" d="M148.7,59.8c-0.1,0.4-0.3,0.8-0.5,1.1c0,0,0,0,0,0c0,0,0,0,0,0c0,0,0,0,0,0c0,0,0,0,0,0
				C148.3,60.5,148.5,60.1,148.7,59.8C148.7,59.8,148.7,59.7,148.7,59.8C148.7,59.7,148.7,59.7,148.7,59.8
				C148.7,59.7,148.7,59.8,148.7,59.8C148.7,59.8,148.7,59.8,148.7,59.8L148.7,59.8z"/>
			<path class="st55" d="M147.7,61.6c-0.3,0.3-0.5,0.6-0.9,0.9c0,0,0,0,0,0s0,0,0,0c0,0,0,0,0,0c0,0,0,0,0,0
				C147.1,62.2,147.3,61.9,147.7,61.6C147.6,61.6,147.6,61.6,147.7,61.6C147.6,61.6,147.6,61.6,147.7,61.6
				C147.7,61.6,147.7,61.6,147.7,61.6C147.7,61.6,147.7,61.6,147.7,61.6L147.7,61.6z"/>
			<path class="st55" d="M146.1,63.1c-0.3,0.2-0.7,0.4-1,0.6c0,0,0,0,0,0c0,0,0,0,0,0c0,0,0,0,0,0s0,0,0,0
				C145.3,63.5,145.7,63.3,146.1,63.1C146,63,146,63,146.1,63.1C146,63,146.1,63,146.1,63.1C146.1,63,146.1,63.1,146.1,63.1
				C146.1,63.1,146.1,63.1,146.1,63.1L146.1,63.1z"/>
			<path class="st55" d="M144.2,64.1c-0.4,0.2-0.7,0.3-1.1,0.5c0,0,0,0,0,0c0,0,0,0,0,0v0C143.5,64.4,143.8,64.3,144.2,64.1
				C144.2,64.1,144.2,64.1,144.2,64.1C144.2,64.1,144.2,64.1,144.2,64.1C144.2,64.1,144.2,64.1,144.2,64.1
				C144.2,64.1,144.2,64.1,144.2,64.1L144.2,64.1z"/>
			<path class="st55" d="M142.2,64.9l-1.2,0.3L142.2,64.9L142.2,64.9z"/>
			<path class="st55" d="M140.2,65.4l-1.2,0.2L140.2,65.4L140.2,65.4z"/>
			<path class="st55" d="M138.1,65.8l-1.2,0.1L138.1,65.8L138.1,65.8z"/>
			<path class="st55" d="M136,66l-0.6,0L136,66L136,66L136,66z"/>
		</g>
		<path class="st56" d="M126.4,36.5c-0.1,0,3.8-0.3,3.8-0.3l2.6,5l-3.7-2.4l-3.9,1.8l-8.2-1L126.4,36.5z"/>
		<path class="st8" d="M116.9,39.6l15.9,1.6l-3.7-2.4L116.9,39.6z"/>
		<path class="st7" d="M116.9,39.6l14.7-6.6l-1.4,3.2L116.9,39.6l12.1-0.8l-2.3,5.5L116.9,39.6z"/>
	</g>
</g>
</svg>
