<svg xmlns="http://www.w3.org/2000/svg" width="358.786" height="106.948" viewBox="0 0 358.786 106.948"><defs><style>.a{fill:#36c;}.b{fill:#004884;}.c{fill:#7d7d7d;}.d{fill:#ebebeb;}.e{fill:#ececec;}.f{fill:#eee;}.g{fill:gray;}.h{fill:#7c7c7c;}.i{fill:#767676;}.j{fill:#696969;}.k{fill:#e3e3e3;}.l{fill:#dedede;}.m{fill:#fff;}</style></defs><g transform="translate(-94.852 -9.2)"><rect class="a" width="358.786" height="106.948" rx="53.474" transform="translate(94.852 9.2)"/><circle class="b" cx="53.474" cy="53.474" r="53.474" transform="translate(94.852 9.2)"/><path class="c" d="M114.618,54.386a36.537,36.537,0,0,1,16.527-21.73,34.28,34.28,0,0,1,25-3.927c16.417,3.762,27.423,18.068,26.989,35.08A34.558,34.558,0,0,1,154.55,96.927c-22.909,4.227-44.83-17.864-40.364-40.646q.11-.555.237-1.1Q114.515,54.78,114.618,54.386Z"/><path class="d" d="M124.228,81.323c-7.6-9.31-8.621-19.753-4.082-30.434,4.531-10.661,12.748-17.226,24.673-18.429,3.161,1.089,6.551.94,9.762,1.81,1.046.284,2.337.043,2.74,1.346A2.7,2.7,0,0,1,155.876,39c-2.489,1.109-3.908,3.676-6.536,4.5-3.876.476-6.584,3-9.394,5.342-7.269,4.508-7.226,4.484-3.364,11.429a12.645,12.645,0,0,1,1.9,5.642c-3.852,5.282-3.189,12.063-5.9,17.723C128.815,86.425,127.125,81.7,124.228,81.323Z"/><path class="d" d="M167.819,39.047c11.8,9.648,14.942,23.715,8.276,37a1.718,1.718,0,0,0-1.22.464c-5.573,6.558-5.57,6.56-10.57-.053-3.106-1.834-2.327-6.661-6.216-7.888a9.137,9.137,0,0,1-.9-1.828c-1.1-2.219-2.576-4.311-2.265-6.978.1-3.488-.914-6.942-.328-10.441a29.262,29.262,0,0,1,7.714-9.619C164.012,38.422,166.008,39.517,167.819,39.047Z"/><path class="e" d="M165.528,75.686c.8-.771,2.238-3.824,2.622-.872,1.322,10.165,3.669,3.592,6.048.691.818-1,1.472-.383,1.9.541-12.943,21.353-37.208,23.822-51.866,5.277,2.685-.339,5.826-1.895,6.73,2.516a9.547,9.547,0,0,1,5.949-1.824c6.974-.283,14.106,2.035,20.9-1.25C160.522,79.289,161.319,74.882,165.528,75.686Z"/><path class="f" d="M167.819,39.047c-1.059,1.214-.937,5.847-3.964,1.366a83.56,83.56,0,0,0-8.333,2.236c-2.843.813-5.734,1.329-7.571-1.956,1.247-3.27,5.445-2.1,7.257-4.837-3.222-2.017-7.552-.536-10.389-3.4C153.159,32.311,161.308,32.827,167.819,39.047Z"/><path class="g" d="M165.528,75.686c-2.481,2.536-3.086,5.723-3.166,9.093-8.527,2.035-17.113,1.085-25.693.522l-5.711-1.462c.555-6.714-2.022-14.344,5.576-19,1.19-3.047-3.194-6.129.056-9.165,4.307-5.094,8.335.31,12.505.329A19.124,19.124,0,0,1,155,58.782a7.153,7.153,0,0,0,2.09,1.8,10.95,10.95,0,0,1,2.69,6.01l-.576.17.4.443C163.506,68.7,165.072,71.806,165.528,75.686Z"/><path class="h" d="M147.951,40.693a14.987,14.987,0,0,0,8.32-1.8c3.106-1.893,5.436-.872,7.584,1.52.176,4.745-3.879,6-6.786,8.2-5.529,3.86-11.153,6.12-17.227,1.034a3.884,3.884,0,0,1-.951-2.729Z"/><path class="i" d="M138.891,46.917l1.766,1.642c3.614,4.211-3.018,5.052-2.7,8.18-1.8,2.469,2.522,6.011-1.425,8.1-.5-.712-.953-1.462-1.5-2.132C127.987,54.162,128.337,52.716,138.891,46.917Z"/><path class="j" d="M137.959,56.739c-2.35-3.795,2.654-5.172,2.7-8.18,5.473-.832,10.942-.307,16.411.053q.014,5.988.026,11.974l-2.7.143c-2.269.084-2.513-4.531-5.652-2.429C144.7,60.855,142.046,53.858,137.959,56.739Z"/><path class="k" d="M159.612,67.209c-.418,5.934-4.594,3.65-7.753,3.631,2.2-2.293,4.391-4.546,7.925-4.246Z"/><path class="d" d="M136.669,85.3c8.564-.164,17.155.992,25.692-.52C153.855,87.777,145.271,86.991,136.669,85.3Z"/><path class="l" d="M148.737,58.3c-.757-1.169-3.073-2.115-1-3.778a2.733,2.733,0,0,1,4.166.678,42.923,42.923,0,0,1,2.487,5.529C151.525,62.192,150.747,58.817,148.737,58.3Z"/><path class="m" d="M221.71,63.875h13.435v2.914H217.983V39.24h3.727Z"/><path class="m" d="M253.876,59.693H243.508l-2.46,7.1h-3.8l9.933-27.549h3.2L260.1,66.789h-3.8Zm-9.29-3.122h8.231l-4.011-11.825h-.114Z"/><path class="m" d="M277.509,54.85V66.789h-3.727V39.258H283.2q4.522,0,6.906,2.006a7.186,7.186,0,0,1,2.385,5.828,6.246,6.246,0,0,1-1.107,3.689,7.5,7.5,0,0,1-3.226,2.5,5.648,5.648,0,0,1,3.263,2.393,7.842,7.842,0,0,1,.994,4.1v2.592a8.594,8.594,0,0,0,.284,2.308,3.449,3.449,0,0,0,.984,1.665v.455h-3.841A3.087,3.087,0,0,1,288.9,64.9a15.6,15.6,0,0,1-.208-2.573V59.807a4.979,4.979,0,0,0-1.305-3.595,4.622,4.622,0,0,0-3.5-1.362Zm0-2.933h5.317q3.159,0,4.55-1.2a4.578,4.578,0,0,0,1.391-3.661,4.719,4.719,0,0,0-1.353-3.6,5.963,5.963,0,0,0-4.21-1.277h-5.7Z"/><path class="m" d="M313.478,54.017H302.163v9.858h13.245v2.914H298.436V39.24H315.2v2.932H302.163v8.912h11.315Z"/><path class="m" d="M319.817,66.789V39.24H328.8a10.9,10.9,0,0,1,6.755,1.863A6.593,6.593,0,0,1,338,46.694a5.055,5.055,0,0,1-1.1,3.189,6.888,6.888,0,0,1-2.913,2.147,6.41,6.41,0,0,1,4.285,2.346,7.183,7.183,0,0,1,1.58,4.636,7.011,7.011,0,0,1-2.459,5.78,10.261,10.261,0,0,1-6.661,2Zm3.727-15.837h6.036a4.951,4.951,0,0,0,3.387-1.145,4.018,4.018,0,0,0,1.3-3.188,3.987,3.987,0,0,0-1.409-3.34,6.454,6.454,0,0,0-4.059-1.107h-5.26Zm0,2.914V63.875h7.19a5.75,5.75,0,0,0,3.964-1.258,4.532,4.532,0,0,0,1.41-3.567,4.922,4.922,0,0,0-1.438-3.69,5.656,5.656,0,0,0-3.879-1.494h-7.247Z"/><path class="m" d="M359.494,54.017H348.179v9.858h13.245v2.914H344.452V39.24h16.764v2.932H348.179v8.912h11.315Z"/><path class="m" d="M385.492,57.971l.038.114a8.277,8.277,0,0,1-2.725,6.49,10.416,10.416,0,0,1-7.4,2.611,9.713,9.713,0,0,1-7.616-3.311,12.181,12.181,0,0,1-2.942-8.4v-4.9a12.213,12.213,0,0,1,2.942-8.41,9.7,9.7,0,0,1,7.616-3.321,10.7,10.7,0,0,1,7.436,2.488,8.227,8.227,0,0,1,2.687,6.594l-.038.114h-3.576a6.15,6.15,0,0,0-1.7-4.579,6.54,6.54,0,0,0-4.806-1.684,5.869,5.869,0,0,0-4.976,2.517,10.229,10.229,0,0,0-1.855,6.243v4.939a10.294,10.294,0,0,0,1.855,6.281,5.869,5.869,0,0,0,4.976,2.517,6.564,6.564,0,0,0,4.806-1.674,6.2,6.2,0,0,0,1.7-4.627Z"/><path class="m" d="M404.6,59.693H394.233l-2.46,7.1h-3.8L397.9,39.24h3.2l9.724,27.549h-3.8Zm-9.29-3.122h8.231l-4.012-11.825h-.114Z"/><path class="m" d="M221.117,87.225h-1.6V75.465h1.6Z"/><path class="m" d="M225.237,78.486l.113,1.3a3.175,3.175,0,0,1,1.094-1.078,2.917,2.917,0,0,1,1.5-.384,2.852,2.852,0,0,1,2.189.828,3.634,3.634,0,0,1,.776,2.556v5.517h-1.592V81.741a2.361,2.361,0,0,0-.456-1.64,1.828,1.828,0,0,0-1.393-.484,2.463,2.463,0,0,0-1.248.3,2.138,2.138,0,0,0-.812.827v6.486h-1.591V78.486Z"/><path class="m" d="M235.43,76.378v2.108h1.655v1.179H235.43v5.307a1.191,1.191,0,0,0,.254.864.92.92,0,0,0,.674.25,1.505,1.505,0,0,0,.308-.036,2.238,2.238,0,0,0,.282-.077l.218,1.09a1.383,1.383,0,0,1-.525.239,2.64,2.64,0,0,1-.686.093,2.059,2.059,0,0,1-1.543-.586,2.539,2.539,0,0,1-.574-1.837V79.665h-1.389V78.486h1.389V76.378Z"/><path class="m" d="M242.925,79.891l-.816-.048a1.816,1.816,0,0,0-1.062.3,1.916,1.916,0,0,0-.666.839v6.244H238.79V78.486h1.421l.154,1.276a3.023,3.023,0,0,1,.917-1.058,2.141,2.141,0,0,1,1.256-.38,1.934,1.934,0,0,1,.338.029,2.406,2.406,0,0,1,.267.06Z"/><path class="m" d="M249.952,87.225c-.054-.264-.1-.5-.125-.7a5.158,5.158,0,0,1-.053-.609,3.719,3.719,0,0,1-1.159,1.054,2.968,2.968,0,0,1-1.538.424,2.855,2.855,0,0,1-2.08-.7,2.568,2.568,0,0,1-.715-1.926,2.258,2.258,0,0,1,1.013-1.959,4.738,4.738,0,0,1,2.751-.707h1.728V81.24a1.606,1.606,0,0,0-.468-1.216,1.843,1.843,0,0,0-1.325-.448,1.925,1.925,0,0,0-1.252.388,1.164,1.164,0,0,0-.476.929l-1.511.016-.016-.049a2.091,2.091,0,0,1,.893-1.744,3.694,3.694,0,0,1,2.451-.792,3.606,3.606,0,0,1,2.391.756,2.674,2.674,0,0,1,.9,2.176v4.208a8.023,8.023,0,0,0,.049.905,4.554,4.554,0,0,0,.178.856Zm-2.641-1.163a2.836,2.836,0,0,0,1.559-.444,2.112,2.112,0,0,0,.9-1.018V83.179h-1.785a2.313,2.313,0,0,0-1.538.484,1.447,1.447,0,0,0-.578,1.139,1.2,1.2,0,0,0,.363.921A1.525,1.525,0,0,0,247.311,86.062Z"/><path class="m" d="M255.1,78.486l.113,1.3a3.177,3.177,0,0,1,1.095-1.078,2.915,2.915,0,0,1,1.5-.384,2.853,2.853,0,0,1,2.189.828,3.634,3.634,0,0,1,.775,2.556v5.517h-1.591V81.741a2.366,2.366,0,0,0-.456-1.64,1.829,1.829,0,0,0-1.394-.484,2.456,2.456,0,0,0-1.247.3,2.131,2.131,0,0,0-.812.827v6.486h-1.592V78.486Z"/><path class="m" d="M266.7,87.395a3.7,3.7,0,0,1-2.936-1.2,4.634,4.634,0,0,1-1.053-3.166V82.67a4.53,4.53,0,0,1,1.086-3.114,3.406,3.406,0,0,1,2.653-1.232,3.172,3.172,0,0,1,2.629,1.091,4.492,4.492,0,0,1,.876,2.9v.84h-5.589l-.024.041a3.616,3.616,0,0,0,.581,2.136,2.034,2.034,0,0,0,1.777.82,4.016,4.016,0,0,0,1.418-.23,3.175,3.175,0,0,0,1.046-.634l.622,1.033a3.833,3.833,0,0,1-1.236.764A4.931,4.931,0,0,1,266.7,87.395Zm-.25-7.819a1.728,1.728,0,0,0-1.377.642,3.043,3.043,0,0,0-.667,1.644l.016.04h3.942v-.129a2.548,2.548,0,0,0-.468-1.575A1.7,1.7,0,0,0,266.445,79.576Z"/><path class="m" d="M273.949,76.378v2.108H275.6v1.179h-1.655v5.307a1.191,1.191,0,0,0,.254.864.92.92,0,0,0,.674.25,1.5,1.5,0,0,0,.308-.036,2.239,2.239,0,0,0,.282-.077l.218,1.09a1.384,1.384,0,0,1-.525.239,2.64,2.64,0,0,1-.686.093,2.059,2.059,0,0,1-1.543-.586,2.539,2.539,0,0,1-.574-1.837V79.665h-1.389V78.486h1.389V76.378Z"/><path class="m" d="M281.057,83.017a5.833,5.833,0,0,1,.9-3.4,2.9,2.9,0,0,1,2.524-1.293,3.121,3.121,0,0,1,1.361.283,2.782,2.782,0,0,1,1.014.824V74.625h1.591v12.6h-1.219l-.243-1.106a2.838,2.838,0,0,1-1.058.953,3.165,3.165,0,0,1-1.462.323,3,3,0,0,1-2.5-1.159,4.818,4.818,0,0,1-.9-3.049Zm1.591.17a3.709,3.709,0,0,0,.541,2.12,1.891,1.891,0,0,0,1.68.8,2.1,2.1,0,0,0,1.2-.324,2.409,2.409,0,0,0,.792-.9V80.8a2.451,2.451,0,0,0-.795-.86,2.1,2.1,0,0,0-1.176-.319,1.82,1.82,0,0,0-1.692.945,4.878,4.878,0,0,0-.545,2.455Z"/><path class="m" d="M294.44,87.395a3.7,3.7,0,0,1-2.936-1.2,4.63,4.63,0,0,1-1.054-3.166V82.67a4.535,4.535,0,0,1,1.086-3.114,3.407,3.407,0,0,1,2.653-1.232,3.174,3.174,0,0,1,2.63,1.091,4.492,4.492,0,0,1,.876,2.9v.84h-5.589l-.024.041a3.609,3.609,0,0,0,.581,2.136,2.034,2.034,0,0,0,1.777.82,4.006,4.006,0,0,0,1.417-.23,3.165,3.165,0,0,0,1.046-.634l.622,1.033a3.828,3.828,0,0,1-1.235.764A4.931,4.931,0,0,1,294.44,87.395Zm-.251-7.819a1.731,1.731,0,0,0-1.377.642,3.043,3.043,0,0,0-.666,1.644l.016.04H296.1v-.129a2.542,2.542,0,0,0-.469-1.575A1.694,1.694,0,0,0,294.189,79.576Z"/><path class="m" d="M301.2,87.225h-1.592v-12.6H301.2Z"/><path class="m" d="M307.977,87.225V75.465h3.7a4.838,4.838,0,0,1,5.105,5.08v1.608a4.826,4.826,0,0,1-5.105,5.072Zm1.591-10.508v9.264h2.108a3.244,3.244,0,0,0,2.573-1.074,4.028,4.028,0,0,0,.941-2.754V80.529a4.005,4.005,0,0,0-.941-2.738,3.244,3.244,0,0,0-2.573-1.074Z"/><path class="m" d="M328.072,87.225h-1.591l-5.662-8.981-.048.016v8.965H319.18V75.465h1.591l5.662,8.973.048-.016V75.465h1.591Z"/><path class="m" d="M332.418,82.508v4.717h-1.591V75.465h4.5a4.144,4.144,0,0,1,2.927.969,3.647,3.647,0,0,1,0,5.113,4.164,4.164,0,0,1-2.927.961Zm0-1.244h2.908A2.134,2.134,0,0,0,337.7,79a2.338,2.338,0,0,0-.594-1.632,2.283,2.283,0,0,0-1.78-.654h-2.908Z"/></g></svg>