<?xml version="1.0" encoding="utf-8"?>
<!-- Generator: Adobe Illustrator 24.1.2, SVG Export Plug-In . SVG Version: 6.00 Build 0)  -->
<svg version="1.1" id="Capa_1" xmlns="http://www.w3.org/2000/svg" xmlns:xlink="http://www.w3.org/1999/xlink" x="0px" y="0px"
	 viewBox="0 0 193 201" style="enable-background:new 0 0 193 201;" xml:space="preserve">
<style type="text/css">
	.st0{fill:#D9DDE3;}
	.st1{opacity:0.3;}
	.st2{fill:#FFFFFF;}
	.st3{fill:#BFC6D1;}
	.st4{fill:url(#SVGID_1_);}
	.st5{fill:url(#SVGID_2_);}
	.st6{fill:url(#SVGID_3_);}
	.st7{fill:url(#SVGID_4_);}
	.st8{fill:url(#SVGID_5_);}
	.st9{fill:url(#SVGID_6_);}
	.st10{fill:url(#SVGID_7_);}
	.st11{opacity:0.5;}
	.st12{fill:url(#SVGID_8_);}
	.st13{fill:url(#SVGID_9_);}
	.st14{fill:url(#SVGID_10_);}
	.st15{fill:url(#SVGID_11_);}
	.st16{fill:url(#SVGID_12_);}
	.st17{fill:url(#SVGID_13_);}
	.st18{opacity:0.3;fill:url(#SVGID_14_);enable-background:new    ;}
	.st19{fill:url(#SVGID_15_);}
	.st20{fill:url(#SVGID_16_);}
	.st21{fill:url(#SVGID_17_);}
	.st22{opacity:0.3;fill:url(#SVGID_18_);enable-background:new    ;}
	.st23{fill:url(#SVGID_19_);}
	.st24{fill:url(#SVGID_20_);}
	.st25{fill:url(#SVGID_21_);}
	.st26{fill:url(#SVGID_22_);}
	.st27{fill:url(#SVGID_23_);}
	.st28{fill:url(#SVGID_24_);}
	.st29{fill:url(#SVGID_25_);}
	.st30{fill:url(#SVGID_26_);}
	.st31{fill:url(#SVGID_27_);}
	.st32{fill:url(#SVGID_28_);}
	.st33{fill:url(#SVGID_29_);}
	.st34{opacity:0.3;fill:url(#SVGID_30_);enable-background:new    ;}
	.st35{fill:url(#SVGID_31_);}
	.st36{opacity:0.3;fill:url(#SVGID_32_);enable-background:new    ;}
	.st37{fill:url(#SVGID_33_);}
	.st38{fill:url(#SVGID_34_);}
	.st39{fill:url(#SVGID_35_);}
	.st40{fill:url(#SVGID_36_);}
	.st41{fill:url(#SVGID_37_);}
	.st42{opacity:0.3;fill:url(#SVGID_38_);enable-background:new    ;}
	.st43{fill:url(#SVGID_39_);}
</style>
<g>
	<path class="st0" d="M86.7,172.3c4.1-0.3,11-0.9,17.1-5.8c11-9,12-26.8,8.4-39.1c-3-10.5-11.2-18.7-27.5-35.2
		C69.3,76.7,63.5,74,63.5,66.7c0.1-10.5,11.9-15.6,10.2-27.8c-0.2-1.5-0.9-6.5-4.7-9.2c-6.5-4.6-17.5,0.9-23.1,5.5
		c-5.4,4.5-12.1,13.3-10.5,22.1c1.2,6.3,5.7,7.2,5.5,12.8c-0.2,5.5-4.9,6.4-8.9,14.7c-1.6,3.3-4.8,10.1-3,16.8
		c2.2,8.8,10.6,9.7,10.7,16.6c0,5-4.4,6.1-5.5,11.6c-1.5,7.2,4.3,14.1,9.1,19.7C49,156.1,64.5,174,86.7,172.3z"/>
	<g class="st1">
		<path class="st2" d="M65.5,32.1c3.2,3.7-11.1,13-12,29.8c-1,18.1,14.1,33.9,21.1,41.2c11.9,12.5,18.4,12.1,25,24.4
			c2.6,4.9,8,15,4.3,26.2c-0.3,1-4.4,12.6-14.8,15.9c-11.8,3.7-22.9-6-32.4-14.4c-5.7-5.1-17.2-15.2-14.4-22.3
			c1.7-4.4,8.4-6.6,13.4-6.5c7.1,0.2,11.8,5.3,12.7,4.2c0.9-1-2.2-5.9-6.9-10.3c-9.5-8.7-16.3-5.9-23-13.5
			c-0.8-0.9-7.2-8.3-5.3-16.6c1.1-4.8,5-10,9.1-10c4.6,0,7.3,6.6,8.6,6c1.2-0.7-0.6-7.1-3.3-13.2c-4-9-6.6-9.7-7.6-15
			c-1.5-8.1,3-15,3.7-16C49.9,32.8,62.8,28.9,65.5,32.1z"/>
	</g>
	<path class="st3" d="M75,168.9c2.3-1.5,6.2-4,8.3-8.8c3.7-8.8-1.3-19.6-7.2-25.7c-5.1-5.3-12.5-7.6-27.2-12.2
		c-13.9-4.3-18.2-4.1-20.4-8.5c-3.2-6.2,2.2-13-2.7-19.6c-0.6-0.8-2.6-3.5-5.7-3.9c-5.3-0.7-10.1,6-11.9,10.5
		c-1.8,4.3-3,11.7,0.7,16.3c2.7,3.4,5.6,2.5,7.2,5.8c1.6,3.3-0.9,5.3-0.6,11.5c0.1,2.5,0.3,7.4,3.5,10.9c4.1,4.5,9.3,2.4,11.5,6.5
		c1.6,2.9-0.7,5,0.4,8.6c1.4,4.7,6.9,7,11.5,8.8C47.7,171.2,62.4,176.9,75,168.9z"/>
	<g class="st1">
		<path class="st2" d="M18.8,92.7c3,1.2-2.5,11.1,2.2,21.4c5.1,11,18.9,15.6,25.3,17.7c10.9,3.6,14.7,1.4,22.4,6.6
			c3.1,2.1,9.4,6.3,10.7,14.1c0.1,0.7,1.3,8.8-3.8,14c-5.8,5.9-15.4,3.6-23.6,1.6c-5-1.2-14.9-3.6-15.5-8.7
			c-0.3-3.1,2.9-6.6,5.9-8.1c4.3-2.1,8.6-0.6,8.8-1.5c0.2-0.9-3.1-2.8-7.3-3.9c-8.3-2.2-11.4,1.6-17.8-0.8c-0.8-0.3-6.8-2.6-8.3-8.1
			c-0.8-3.2-0.1-7.5,2.3-8.7c2.7-1.4,6.4,1.6,6.9,0.8c0.5-0.8-2.6-4-6.1-6.8c-5.2-4.1-6.9-3.7-9.2-6.5c-3.4-4.3-2.9-9.8-2.8-10.6
			C9.8,98,16.2,91.7,18.8,92.7z"/>
	</g>
	
		<linearGradient id="SVGID_1_" gradientUnits="userSpaceOnUse" x1="89.5032" y1="44.662" x2="84.4343" y2="62.249" gradientTransform="matrix(1 0 0 -1 0 202)">
		<stop  offset="0" style="stop-color:#311944"/>
		<stop  offset="0.56" style="stop-color:#6F2B60"/>
		<stop  offset="1" style="stop-color:#A03976"/>
	</linearGradient>
	<path class="st4" d="M46.7,147.5l37.1-1.6l42.8,1.5l-42.2,9.2L46.7,147.5z"/>
	
		<linearGradient id="SVGID_2_" gradientUnits="userSpaceOnUse" x1="55.5278" y1="19.0473" x2="62.0476" y2="33.8733" gradientTransform="matrix(1 0 0 -1 0 202)">
		<stop  offset="0" style="stop-color:#AA80F9"/>
		<stop  offset="1" style="stop-color:#6165D7"/>
	</linearGradient>
	<path class="st5" d="M76.6,183.3l-30.1-8.1c-3-0.8-5.4-3.8-5.4-6.7v0c0-2.9,2.4-4.9,5.4-4.3l32.3,5.3L76.6,183.3z"/>
	
		<linearGradient id="SVGID_3_" gradientUnits="userSpaceOnUse" x1="72.5083" y1="27.5513" x2="126.675" y2="27.5513" gradientTransform="matrix(1 0 0 -1 0 202)">
		<stop  offset="0" style="stop-color:#F4F7FA"/>
		<stop  offset="1" style="stop-color:#D8DEE8"/>
	</linearGradient>
	<path class="st6" d="M126.7,177.2l-48.6,5.4c-3,0.3-5.5-1.8-5.5-4.7v-2c0-3,2.5-5.6,5.5-5.8l48.6-3.9
		C124.5,170.2,124,174,126.7,177.2z"/>
	
		<linearGradient id="SVGID_4_" gradientUnits="userSpaceOnUse" x1="63220.3008" y1="27.5239" x2="113266" y2="27.5239" gradientTransform="matrix(1 0 0 -1 0 202)">
		<stop  offset="0" style="stop-color:#AA80F9"/>
		<stop  offset="1" style="stop-color:#6165D7"/>
	</linearGradient>
	<path class="st7" d="M127.1,177.8l-48.6,5.5c-4,0.5-7.3-2.3-7.3-6.2v0c0-3.9,3.3-7.3,7.3-7.6l48.6-3.8c0.3,0,0.5,0.2,0.5,0.5
		c0,0.3-0.2,0.6-0.5,0.6l-48.6,4c-3.2,0.3-5.8,3-5.8,6.1v0c0,3.1,2.6,5.4,5.8,5l48.6-5.4c0.3,0,0.5,0.2,0.5,0.5
		C127.6,177.4,127.4,177.7,127.1,177.8z"/>
	
		<linearGradient id="SVGID_5_" gradientUnits="userSpaceOnUse" x1="-17397.2539" y1="-50930.0117" x2="-13720.3545" y2="-40194.1133" gradientTransform="matrix(1 0 0 -1 0 202)">
		<stop  offset="0" style="stop-color:#311944"/>
		<stop  offset="0.56" style="stop-color:#6F2B60"/>
		<stop  offset="1" style="stop-color:#A03976"/>
	</linearGradient>
	<path class="st8" d="M77.9,169.4l-31.4-5.3c-3-0.5-5.4-4.5-5.4-8.9v-0.1c0-4.4,2.4-7.8,5.4-7.7l33.3,1.2L77.9,169.4z"/>
	
		<linearGradient id="SVGID_6_" gradientUnits="userSpaceOnUse" x1="61807.1016" y1="43.7459" x2="107926" y2="43.7459" gradientTransform="matrix(1 0 0 -1 0 202)">
		<stop  offset="0" style="stop-color:#F4F7FA"/>
		<stop  offset="1" style="stop-color:#D8DEE8"/>
	</linearGradient>
	<path class="st9" d="M126.7,164.8l-45.9,3.5c-4.5,0.3-8.3-3-8.3-7.4v-3c0-4.5,3.7-8.2,8.3-8.3l45.9-1.3
		C124.5,154.2,124,159.9,126.7,164.8z"/>
	
		<linearGradient id="SVGID_7_" gradientUnits="userSpaceOnUse" x1="63220.3008" y1="43.5792" x2="113266" y2="43.5792" gradientTransform="matrix(1 0 0 -1 0 202)">
		<stop  offset="0" style="stop-color:#311944"/>
		<stop  offset="0.56" style="stop-color:#6F2B60"/>
		<stop  offset="1" style="stop-color:#A03976"/>
	</linearGradient>
	<path class="st10" d="M127.1,165.6l-48.6,3.8c-4,0.3-7.3-4.2-7.3-10v-0.1c0-5.8,3.3-10.6,7.3-10.7l48.6-1.2c0.3,0,0.5,0.4,0.5,0.9
		s-0.2,0.9-0.5,0.9l-48.6,1.5c-3.2,0.1-5.8,4-5.8,8.7v0.1c0,4.7,2.6,8.3,5.8,8.1l48.6-3.5c0.3,0,0.5,0.4,0.5,0.8
		S127.4,165.6,127.1,165.6z"/>
	<g class="st11">
		<path class="st2" d="M68.2,165l-6.7-1.2c-1.6-4.3-1.4-8.2,0-12.9l6.7,0.5C66.8,156.4,67,160.9,68.2,165z"/>
	</g>
	
		<linearGradient id="SVGID_8_" gradientUnits="userSpaceOnUse" x1="74.9714" y1="163.5293" x2="76.2309" y2="149.5245" gradientTransform="matrix(1 0 0 -1 0 202)">
		<stop  offset="0" style="stop-color:#444B8C"/>
		<stop  offset="1" style="stop-color:#26264F"/>
	</linearGradient>
	<path class="st12" d="M99.5,54.2l-48.2,0.7v-9.7c0-2.8,3.9-4.4,5.7-2.5l1,2.2c1.7,1.7,4,2.2,6.1,1.3l35.4-15.1V54.2z"/>
	
		<linearGradient id="SVGID_9_" gradientUnits="userSpaceOnUse" x1="-126.3718" y1="-5074.6211" x2="-368.3721" y2="-10106.4219" gradientTransform="matrix(1 0 0 -1 0 202)">
		<stop  offset="0" style="stop-color:#444B8C"/>
		<stop  offset="1" style="stop-color:#26264F"/>
	</linearGradient>
	<path class="st13" d="M104.2,54.1l41.2-0.6L147,45c0-2.4-3.8-3.4-5.2-1.8l-1.5,1.8c-1.3,1.5-3.2,2-4.8,1.2l-31.4-14.8V54.1z"/>
	
		<linearGradient id="SVGID_10_" gradientUnits="userSpaceOnUse" x1="832.4941" y1="-16870.6621" x2="1066.0918" y2="-22136.2617" gradientTransform="matrix(1 0 0 -1 0 202)">
		<stop  offset="0" style="stop-color:#AA80F9"/>
		<stop  offset="1" style="stop-color:#6165D7"/>
	</linearGradient>
	<path class="st14" d="M101.1,54.5l-48.2,0.7v-9.7c0-2.8,2.9-4.2,4.7-2.3l2,2c1.7,1.7,4,2.2,6.1,1.3l35.4-15.1V54.5z"/>
	
		<linearGradient id="SVGID_11_" gradientUnits="userSpaceOnUse" x1="-138.7673" y1="-5155.8164" x2="-389.7675" y2="-10186.7168" gradientTransform="matrix(1 0 0 -1 0 202)">
		<stop  offset="0" style="stop-color:#AA80F9"/>
		<stop  offset="1" style="stop-color:#6165D7"/>
	</linearGradient>
	<path class="st15" d="M105.8,54.4l41.2-0.6v-8.4c0-2.4-2.2-3.6-3.6-2l-1.5,1.7c-1.3,1.5-3.1,2-4.8,1.2l-31.3-14.8V54.4z"/>
	
		<linearGradient id="SVGID_12_" gradientUnits="userSpaceOnUse" x1="10.1157" y1="112.3478" x2="95.7551" y2="112.3478" gradientTransform="matrix(1 0 0 -1 0 202)">
		<stop  offset="0" style="stop-color:#40447E"/>
		<stop  offset="1" style="stop-color:#3C3B6B"/>
	</linearGradient>
	<path class="st16" d="M95.4,126.3L52.9,53.9L10.5,126l-0.4-0.3L52.9,53l0.2,0.3L95.8,126L95.4,126.3z"/>
	
		<linearGradient id="SVGID_13_" gradientUnits="userSpaceOnUse" x1="12271.7002" y1="70.864" x2="134472" y2="70.864" gradientTransform="matrix(1 0 0 -1 0 202)">
		<stop  offset="0" style="stop-color:#311944"/>
		<stop  offset="0.56" style="stop-color:#6F2B60"/>
		<stop  offset="1" style="stop-color:#A03976"/>
	</linearGradient>
	<path class="st17" d="M97,126.2c0,3.2-19.7,15.8-44.1,15.8S8.8,129.4,8.8,126.2c0-3.2,19.7-5.9,44.1-5.9S97,122.9,97,126.2z"/>
	<path class="st2" d="M52.9,131.8c24.3,0,44.1-2.6,44.1-5.9s-19.7-5.9-44.1-5.9S8.8,122.7,8.8,126S28.6,131.8,52.9,131.8z"/>
	
		<linearGradient id="SVGID_14_" gradientUnits="userSpaceOnUse" x1="227.0484" y1="-18087.1211" x2="237.0485" y2="-19130.3203" gradientTransform="matrix(1 0 0 -1 0 202)">
		<stop  offset="0" style="stop-color:#AA80F9"/>
		<stop  offset="1" style="stop-color:#6165D7"/>
	</linearGradient>
	<path class="st18" d="M52.9,130c23.5,0,42.6-2,42.6-4.6c0-2.5-19.1-4.6-42.6-4.6c-23.5,0-42.6,2-42.6,4.6
		C10.3,127.9,29.4,130,52.9,130z"/>
	
		<linearGradient id="SVGID_15_" gradientUnits="userSpaceOnUse" x1="401.8029" y1="-7872.999" x2="849.0527" y2="-18156.5781" gradientTransform="matrix(1 0 0 -1 0 202)">
		<stop  offset="0" style="stop-color:#444B8C"/>
		<stop  offset="1" style="stop-color:#26264F"/>
	</linearGradient>
	<path class="st19" d="M52.9,59.3c2.9,0,5.2-2.6,5.2-5.8c0-3.2-2.3-5.8-5.2-5.8c-2.9,0-5.2,2.6-5.2,5.8
		C47.7,56.6,50.1,59.3,52.9,59.3z"/>
	
		<linearGradient id="SVGID_16_" gradientUnits="userSpaceOnUse" x1="128957" y1="117.6833" x2="216820" y2="117.6833" gradientTransform="matrix(1 0 0 -1 0 202)">
		<stop  offset="0" style="stop-color:#40447E"/>
		<stop  offset="1" style="stop-color:#3C3B6B"/>
	</linearGradient>
	<path class="st20" d="M184.1,116.3L147,53.1L110,116l-0.3-0.2L147,52.3l0.2,0.3l37.2,63.5L184.1,116.3z"/>
	
		<linearGradient id="SVGID_17_" gradientUnits="userSpaceOnUse" x1="131432" y1="81.4655" x2="224574" y2="81.4655" gradientTransform="matrix(1 0 0 -1 0 202)">
		<stop  offset="0" style="stop-color:#311944"/>
		<stop  offset="0.56" style="stop-color:#6F2B60"/>
		<stop  offset="1" style="stop-color:#A03976"/>
	</linearGradient>
	<path class="st21" d="M185.5,116.2c0,2.8-17.2,13.8-38.5,13.8c-21.3,0-38.5-11-38.5-13.8c0-2.8,17.2-5.1,38.5-5.1
		C168.3,111.1,185.5,113.4,185.5,116.2z"/>
	<path class="st2" d="M147,121.1c21.3,0,38.5-2.3,38.5-5.1c0-2.8-17.2-5.1-38.5-5.1c-21.3,0-38.5,2.3-38.5,5.1
		C108.5,118.8,125.8,121.1,147,121.1z"/>
	
		<linearGradient id="SVGID_18_" gradientUnits="userSpaceOnUse" x1="302.1985" y1="-16081.3164" x2="310.1985" y2="-16914.8164" gradientTransform="matrix(1 0 0 -1 0 202)">
		<stop  offset="0" style="stop-color:#AA80F9"/>
		<stop  offset="1" style="stop-color:#6165D7"/>
	</linearGradient>
	<path class="st22" d="M147,119.8c20.6,0,37.2-1.8,37.2-4.1c0-2.3-16.7-4.1-37.2-4.1c-20.6,0-37.2,1.8-37.2,4.1
		C109.8,117.9,126.5,119.8,147,119.8z"/>
	
		<linearGradient id="SVGID_19_" gradientUnits="userSpaceOnUse" x1="453.7241" y1="-6899.4712" x2="794.7245" y2="-14736.4609" gradientTransform="matrix(1 0 0 -1 0 202)">
		<stop  offset="0" style="stop-color:#444B8C"/>
		<stop  offset="1" style="stop-color:#26264F"/>
	</linearGradient>
	<path class="st23" d="M147,57.8c2.5,0,4.5-2.3,4.5-5.1c0-2.8-2-5.1-4.5-5.1c-2.5,0-4.5,2.3-4.5,5.1C142.5,55.5,144.5,57.8,147,57.8
		z"/>
	
		<linearGradient id="SVGID_20_" gradientUnits="userSpaceOnUse" x1="6578.5386" y1="-23103.8301" x2="11780.2393" y2="-41798.0273" gradientTransform="matrix(1 0 0 -1 0 202)">
		<stop  offset="0" style="stop-color:#444B8C"/>
		<stop  offset="1" style="stop-color:#26264F"/>
	</linearGradient>
	<path class="st24" d="M107.5,16.2l-8.1-0.4c-1.8-0.1-3.3,1.6-3.3,3.9v6.7l2.2,31.3c0.1,2.1,1.6,3.6,3.3,3.6l3.9-0.1
		c1.7,0,3.1-1.6,3.2-3.7l2.1-30.7v-6.6C110.7,18.1,109.3,16.3,107.5,16.2z"/>
	
		<linearGradient id="SVGID_21_" gradientUnits="userSpaceOnUse" x1="6608.7095" y1="-23206.1211" x2="11810.4072" y2="-41900.3203" gradientTransform="matrix(1 0 0 -1 0 202)">
		<stop  offset="0" style="stop-color:#AA80F9"/>
		<stop  offset="1" style="stop-color:#6165D7"/>
	</linearGradient>
	<path class="st25" d="M109.2,16.2l-8.1-0.4c-1.8-0.1-3.3,1.6-3.3,3.9v6.7l2.2,31.3c0.1,2.1,1.6,3.6,3.3,3.6l3.9-0.1
		c1.7,0,3.1-1.6,3.2-3.7l2.1-30.7v-6.6C112.4,18.1,111,16.3,109.2,16.2z"/>
	<g class="st1">
		<g class="st1">
			<path class="st2" d="M107.5,46.5c-2.5-9.8-7-13.9-7.7-23.4c-0.2-2.4-0.1-4.7,0.2-7.1c-1.3,0.5-2.3,1.9-2.3,3.7v6.7l2.2,31.3
				c0.1,2.1,1.6,3.6,3.3,3.6l3.9-0.1c0.7,0,1.3-0.3,1.8-0.7C109.2,54.6,108.4,49.9,107.5,46.5z"/>
		</g>
	</g>
	
		<linearGradient id="SVGID_22_" gradientUnits="userSpaceOnUse" x1="99.9646" y1="114.0914" x2="94.1848" y2="93.1283" gradientTransform="matrix(1 0 0 -1 0 202)">
		<stop  offset="0" style="stop-color:#FFC444"/>
		<stop  offset="1" style="stop-color:#F36F56"/>
	</linearGradient>
	<path class="st26" d="M100.7,61.9c0,0-14.5,5.8-12,21.5c2.5,15.7,24,10.8,24,10.8l1.3-10.8c0,0-16.4,0.7-14.3-9.4
		c2.2-11,4.2-11.1,4.2-11.1L100.7,61.9z"/>
	
		<linearGradient id="SVGID_23_" gradientUnits="userSpaceOnUse" x1="294.2661" y1="-7534.2061" x2="319.2661" y2="-8597.9365" gradientTransform="matrix(1 0 0 -1 0 202)">
		<stop  offset="0" style="stop-color:#444B8C"/>
		<stop  offset="1" style="stop-color:#26264F"/>
	</linearGradient>
	<path class="st27" d="M119.9,186.7c0,0,0.2,1.4,0.1,1.9c-0.1,0.5-4.3,0.8-5.7,0.7c-1.4-0.2,0.8-1.6,1.7-1.9
		C116.9,187.2,119.9,186.7,119.9,186.7z"/>
	
		<linearGradient id="SVGID_24_" gradientUnits="userSpaceOnUse" x1="437.2845" y1="-9719.8936" x2="379.6445" y2="-7957.2842" gradientTransform="matrix(1 0 0 -1 0 202)">
		<stop  offset="0" style="stop-color:#FFC444"/>
		<stop  offset="1" style="stop-color:#F36F56"/>
	</linearGradient>
	<path class="st28" d="M117.8,184.3l0.4,2.9c0,0,1.1,0.5,1.7,0l0.1-3L117.8,184.3z"/>
	
		<linearGradient id="SVGID_25_" gradientUnits="userSpaceOnUse" x1="1624.5602" y1="-19160.6992" x2="1833.3611" y2="-21862.9004" gradientTransform="matrix(1 0 0 -1 0 202)">
		<stop  offset="0" style="stop-color:#444B8C"/>
		<stop  offset="1" style="stop-color:#26264F"/>
	</linearGradient>
	<path class="st29" d="M141.2,184.2c0,0-0.9,0.7-0.6,1.4c0.2,0.8,2.3,3.9,3.8,4.8c1.5,0.9,1-1,0.6-2.1c-0.4-1.2-1.5-3.7-1.9-4.1
		C142.5,183.8,141.2,184.2,141.2,184.2z"/>
	
		<linearGradient id="SVGID_26_" gradientUnits="userSpaceOnUse" x1="871.1379" y1="-20763.582" x2="739.0883" y2="-17001.3809" gradientTransform="matrix(1 0 0 -1 0 202)">
		<stop  offset="0" style="stop-color:#FFC444"/>
		<stop  offset="1" style="stop-color:#F36F56"/>
	</linearGradient>
	<path class="st30" d="M139.6,181.1c0.4,1.2,0.8,2.2,1.2,2.9c0.7,1.6,1.1,2.2,1.5,2.7c0.4,0.5,1.3,1.4,1.5,1.3
		c0.2-0.2-0.4-1.3-1.7-4.8c-0.2-0.5-0.8-2.1-0.8-2.1H139.6z"/>
	
		<linearGradient id="SVGID_27_" gradientUnits="userSpaceOnUse" x1="-23397.7695" y1="-8352.2002" x2="-15237.1709" y2="-5438.2007" gradientTransform="matrix(1 0 0 -1 0 202)">
		<stop  offset="0" style="stop-color:#444B8C"/>
		<stop  offset="1" style="stop-color:#26264F"/>
	</linearGradient>
	<path class="st31" d="M109.1,131.4c-0.4,4.4-0.5,8.8-0.2,13.2c0.6,7.3,2,12,3.9,19.8c1.1,4.8,2.6,11.8,4,20.6
		c0.3,0.2,1.2,0.7,2.5,0.5c0.5-0.1,1-0.3,1.5-0.6c3.6-11,2.5-17.8,0.8-22c-0.7-1.8-1.6-3.2-2.1-6c-0.6-3.7,0.2-5.7,1.3-14.2
		c0.8-6.1,0.7-7,0.1-7.9C118.7,131.2,112.2,131.2,109.1,131.4z"/>
	
		<linearGradient id="SVGID_28_" gradientUnits="userSpaceOnUse" x1="-11299.6719" y1="-4374.6763" x2="6899.8286" y2="2660.324" gradientTransform="matrix(1 0 0 -1 0 202)">
		<stop  offset="0" style="stop-color:#444B8C"/>
		<stop  offset="1" style="stop-color:#26264F"/>
	</linearGradient>
	<path class="st32" d="M121.4,132.7c2.2,11.4,4.4,17.3,6,20.7c1.2,2.4,2.2,4.8,3,7.4c1.1,3.4,1.6,5.9,1.8,7
		c0.8,3.5,2.6,8.6,7.7,15.2c0.1,0,0.9,0.5,1.7,0.1c0.3-0.2,0.6-0.4,0.7-0.7c-0.7-6.4-1.4-11.7-2.1-15.9c-0.1-0.9-0.7-4.7-1.7-9.7
		c-0.4-2-0.9-4.8-1.6-7.8c-0.8-3.7-2.1-8.7-4-14.7L121.4,132.7z"/>
	
		<linearGradient id="SVGID_29_" gradientUnits="userSpaceOnUse" x1="104060.8438" y1="-81702.8516" x2="92454.8438" y2="-72565.1563" gradientTransform="matrix(1 0 0 -1 0 202)">
		<stop  offset="0" style="stop-color:#444B8C"/>
		<stop  offset="1" style="stop-color:#26264F"/>
	</linearGradient>
	<path class="st33" d="M124.5,84.7c-1.7-0.4-4.8-0.5-7.2-2.7c-0.7-0.7-3.4-3-2.4-6.1c0.6-1.8,2.3-3.7,4.4-4.2
		c1.7-0.5,2.4,0.4,6.1,1.1c1.4,0.3,3.7,0.7,5.9,0.5c3.8-0.3,5.3-2.3,8.7-3.6c4.1-1.7,9.7-1.8,13.3,0c6.3,3.2,2.6,10.8,9.6,14.7
		c2.3,1.3,2.8,0.5,7.9,2.7c5.1,2.2,7.6,3.3,8.3,5.7c1,3.3-1.7,8.1-5.4,10c-3.7,1.9-7,0.4-8.4,2.3c-1,1.4,0.4,2.5-0.2,4.9
		c-0.8,3.1-4.2,5.2-4.7,5.5c-5.1,3.1-14.7,1-20.6-4C129.2,102.4,134,87.1,124.5,84.7z"/>
	
		<linearGradient id="SVGID_30_" gradientUnits="userSpaceOnUse" x1="-17689.5762" y1="-4526.7065" x2="-11510.0762" y2="-2940.7065" gradientTransform="matrix(1 0 0 -1 0 202)">
		<stop  offset="0" style="stop-color:#444B8C"/>
		<stop  offset="1" style="stop-color:#26264F"/>
	</linearGradient>
	<path class="st34" d="M121.5,163c-0.7-1.8-1.6-3.2-2.1-6c-0.6-3.7,0.2-5.7,1.3-14.2c0.8-6.1,0.7-7,0.1-7.9c-1.2-2-3.6-2.9-6.1-3.2
		c0,0.1,0.1,0.3,0.1,0.4c1.3,6-3.7,9.6-1.4,16.2c1.1,3.2,2.9,4,3.3,7.7c0.4,3.5-1,4.2-0.7,7.4c0.4,4.8,3.8,5.9,4.7,9.6
		c0.6,2.4,0.1,5.8-4.1,10.9c0.1,0.4,0.1,0.9,0.2,1.3c0.3,0.2,1.2,0.7,2.4,0.5c0.5-0.1,1-0.3,1.5-0.6
		C124.3,174,123.3,167.2,121.5,163z"/>
	
		<linearGradient id="SVGID_31_" gradientUnits="userSpaceOnUse" x1="93236.6641" y1="-104832.8125" x2="126241.6719" y2="-142021.8125" gradientTransform="matrix(1 0 0 -1 0 202)">
		<stop  offset="0" style="stop-color:#FFC444"/>
		<stop  offset="1" style="stop-color:#F36F56"/>
	</linearGradient>
	<path class="st35" d="M104.5,86.9c0.3-0.5,1.4-1.9,5.8-3c2.2-0.5,6.3-1.4,11.6-0.3c7.3,1.5,11.8,5.9,13.5,7.7
		c-1.4,0.9-5.2,3.7-7.2,9c-0.6,1.6-2.3,7.2,0.2,12.5c1.5,3,4,5.3,5.9,7c2.9,2.6,4.4,3,5.4,5.3c1.1,2.5,0,3.7,1.3,5.5
		c1.4,1.9,3.1,1,5.5,2.9c2.4,1.9,1.6,3.5,3.8,5.6c3.3,3.1,7.6,2.1,7.8,3.5c0.2,1.2-2.9,2.8-5.5,3.5c-5.2,1.3-9.7-0.9-11-1.6
		c-3.7-1.9-3.1-3.1-5.9-4.5c-4.7-2.4-8,0.3-18.7,0.5c-5.8,0.1-8.8,0.2-10.4-1.8c-1.5-1.8-0.7-3.8,0.2-12.3c0.3-2.9,0.9-8.8,0.9-12.2
		c0-2-0.7-5.3-2.1-11.9c-0.1-0.4-0.8-3.9-1.4-8.7C103.6,89.4,103.7,88.1,104.5,86.9z"/>
	<g class="st1">
		
			<linearGradient id="SVGID_32_" gradientUnits="userSpaceOnUse" x1="18582.2441" y1="-82900.875" x2="27763.3438" y2="-124205.1719" gradientTransform="matrix(1 0 0 -1 0 202)">
			<stop  offset="0" style="stop-color:#FFC444"/>
			<stop  offset="1" style="stop-color:#F36F56"/>
		</linearGradient>
		<path class="st36" d="M150.4,139.1c-2.2-2.1-1.4-3.7-3.8-5.6c-2.5-1.9-4.1-1-5.5-2.9c-1.3-1.7-0.2-3-1.3-5.5
			c-1-2.3-2.5-2.7-5.4-5.3c-1.9-1.7-4.5-4-5.9-7c-2.5-5.3-0.7-10.8-0.2-12.5c1.9-5.3,5.8-8,7.2-9l-0.5-0.5
			c-9.2,1.3-14.6,6.6-15.2,8.2c-1.5,3.6,0.9,5,1,15.5c0,5-0.5,7,1.1,9.1c1.9,2.4,4,1.7,6.7,4.8c2.1,2.4,1.7,3.9,3.7,4.9
			c2.1,1.1,3.4-0.2,5.7,0.3c3.9,0.8,4.7,5.3,7.3,7.8c2,1.9,5.6,3.2,12.7,1.8c0.2-0.2,0.2-0.5,0.2-0.7
			C158,141.2,153.7,142.2,150.4,139.1z"/>
	</g>
	
		<linearGradient id="SVGID_33_" gradientUnits="userSpaceOnUse" x1="-536.194" y1="-3269.8201" x2="-1099.8953" y2="-6187.77" gradientTransform="matrix(1 0 0 -1 0 202)">
		<stop  offset="0" style="stop-color:#FFC444"/>
		<stop  offset="1" style="stop-color:#F36F56"/>
	</linearGradient>
	<path class="st37" d="M119,77.9c0,0,0.5,3.7,1.8,4.6c1.4,0.8,3.6,2,3.8,2.3c0.2,0.3-8.5,1.2-12.8-0.9c1.4-0.3,1.8-0.4,1.8-0.4
		c0.4-0.1,1.1-0.3,1.8-0.7c0.8-0.5,1.5-1.1,2-1.9l0-2.1L119,77.9z"/>
	
		<linearGradient id="SVGID_34_" gradientUnits="userSpaceOnUse" x1="3340.8621" y1="1851.8588" x2="4223.6123" y2="2325.0784" gradientTransform="matrix(1 0 0 -1 0 202)">
		<stop  offset="0" style="stop-color:#FFC444"/>
		<stop  offset="1" style="stop-color:#F36F56"/>
	</linearGradient>
	<path class="st38" d="M119.2,79.3c0,0-0.9,1.2-2.3,0.7c-1.3-0.5-0.5-3.7,0.5-4.1c0.3-0.1,0.9-0.1,1.3,0.2c0.3,0.2,1.1,1.1,0.6,2.2
		c0.3-0.1,0.6,0,0.7,0.2s-0.2,0.5-0.2,0.5C119.6,79.1,119.4,79.2,119.2,79.3z"/>
	
		<linearGradient id="SVGID_35_" gradientUnits="userSpaceOnUse" x1="-228.5596" y1="-2045.7001" x2="-281.1593" y2="-2394.1597" gradientTransform="matrix(1 0 0 -1 0 202)">
		<stop  offset="0" style="stop-color:#FFC444"/>
		<stop  offset="1" style="stop-color:#F36F56"/>
	</linearGradient>
	<path class="st39" d="M103.1,62.2l2-1c0,0-4.3-0.3-5.4-1.8c-1-1.6-1.8-1.6-1.3-0.5c0.4,0.7,1.9,2.2,2.9,3.2
		c0.2,0.2,0.5,0.4,0.8,0.4C102.5,62.4,102.8,62.3,103.1,62.2z"/>
	
		<linearGradient id="SVGID_36_" gradientUnits="userSpaceOnUse" x1="40035" y1="102.2629" x2="46472.1992" y2="102.2629" gradientTransform="matrix(1 0 0 -1 0 202)">
		<stop  offset="0" style="stop-color:#FFC444"/>
		<stop  offset="1" style="stop-color:#F36F56"/>
	</linearGradient>
	<path class="st40" d="M125.6,102.3c-0.9,1.9,3.3,6.5,7.9,8.6c1,0.4,7.8,3.6,10.8,0.6c2.5-2.5,0.9-7.6,0.3-9.5
		c-2.8-9-11.6-13.6-15.2-15.3c-2.7,6.8-1.1,9.9-0.5,10.8c0.6,0.9,2.5,3.1,4.5,4.9c1.4,1.3,2.2,1.9,2.1,2.1c-0.1,0.2-1.8-0.2-8-3.3
		C126.8,101.4,125.9,101.7,125.6,102.3z"/>
	
		<linearGradient id="SVGID_37_" gradientUnits="userSpaceOnUse" x1="-3362.0696" y1="-29951.2559" x2="-2938.2708" y2="-26290.9551" gradientTransform="matrix(1 0 0 -1 0 202)">
		<stop  offset="0" style="stop-color:#311944"/>
		<stop  offset="0.56" style="stop-color:#6F2B60"/>
		<stop  offset="1" style="stop-color:#A03976"/>
	</linearGradient>
	<path class="st41" d="M110.1,91l11.1,1c0.1,0,0.2,0.1,0.3,0.1c0.1,0.1,0.2,0.2,0.2,0.3l4.1,14.5c0,0.1,0,0.2,0,0.3
		c0,0.1-0.1,0.2-0.1,0.2c-0.1,0.1-0.1,0.1-0.2,0.2c-0.1,0-0.2,0.1-0.3,0l-11.2-1c-0.1,0-0.2-0.1-0.3-0.1c-0.1-0.1-0.2-0.2-0.2-0.3
		l-4.1-14.5c0-0.1,0-0.2,0-0.3c0-0.1,0.1-0.2,0.1-0.2c0.1-0.1,0.1-0.1,0.2-0.2C109.9,91,110,91,110.1,91z"/>
	
		<linearGradient id="SVGID_38_" gradientUnits="userSpaceOnUse" x1="-5023.5957" y1="-28533.4063" x2="-4397.7964" y2="-25045.707" gradientTransform="matrix(1 0 0 -1 0 202)">
		<stop  offset="0" style="stop-color:#311944"/>
		<stop  offset="0.56" style="stop-color:#6F2B60"/>
		<stop  offset="1" style="stop-color:#A03976"/>
	</linearGradient>
	<path class="st42" d="M117.5,103.5c-0.4-2.3,0.9-4.1-0.4-6.2c-1.2-2.1-3.5-1.8-5.1-3.7c-0.5-0.6-1-1.4-1.2-2.6l-0.7-0.1
		c-0.1,0-0.2,0-0.3,0c-0.1,0-0.2,0.1-0.2,0.2c-0.1,0.1-0.1,0.2-0.1,0.2c0,0.1,0,0.2,0,0.3l4.1,14.5c0,0.1,0.1,0.2,0.2,0.3
		c0.1,0.1,0.2,0.1,0.3,0.1l5.7,0.5C118.3,105.9,117.7,104.6,117.5,103.5z"/>
	
		<linearGradient id="SVGID_39_" gradientUnits="userSpaceOnUse" x1="1697.8049" y1="-10264.0127" x2="2165.7043" y2="-13346.123" gradientTransform="matrix(1 0 0 -1 0 202)">
		<stop  offset="0" style="stop-color:#FFC444"/>
		<stop  offset="1" style="stop-color:#F36F56"/>
	</linearGradient>
	<path class="st43" d="M127.2,101.9c0,0-3.8-3.9-5.4-4.5c-1.6-0.6-0.2,3.6,0.7,4.1c0.9,0.6,1.3,0.8,2,0.9l0.7,0.1l0.9,0.5
		C126.2,103,127.4,102.8,127.2,101.9z"/>
</g>
</svg>
