<?xml version="1.0" encoding="utf-8"?>
<!-- Generator: Adobe Illustrator 24.1.2, SVG Export Plug-In . SVG Version: 6.00 Build 0)  -->
<svg version="1.1" id="Capa_1" xmlns="http://www.w3.org/2000/svg" xmlns:xlink="http://www.w3.org/1999/xlink" x="0px" y="0px"
	 viewBox="0 0 240.2 85.4" style="enable-background:new 0 0 240.2 85.4;" xml:space="preserve">
<style type="text/css">
	.st0{fill:#004884;}
	.st1{fill:#3366CC;}
	.st2{fill:url(#SVGID_1_);}
</style>
<g transform="translate(-93.782 -191.125)">
	<path class="st0" d="M131.8,258.2l0.1,0.2c0.1,6-1.4,10.6-4.6,13.6c-3.2,3-7.7,4.5-13.7,4.5c-6.1,0-10.9-1.8-14.4-5.4
		c-3.6-3.6-5.3-8.7-5.3-15.2v-16.7c0-6.6,1.7-11.6,5.2-15.3s8.1-5.4,14-5.4c6.2,0,10.9,1.5,14.2,4.5c3.3,3,4.9,7.5,4.8,13.6
		l-0.1,0.2h-10.6c0-3.6-0.6-6.1-1.9-7.6c-1.3-1.4-3.4-2.2-6.4-2.2c-2.4-0.2-4.8,1-6.2,3c-1.4,2-2.1,5-2.1,9.1v16.8
		c0,4.1,0.7,7.1,2.2,9.1s3.7,3,6.7,3c2.7,0,4.7-0.7,5.8-2.1c1.2-1.4,1.8-4,1.8-7.6L131.8,258.2z"/>
	<path class="st0" d="M175.9,255.4c0,6.6-1.9,11.8-5.6,15.5c-3.7,3.7-8.7,5.6-14.9,5.6c-6.2,0-11.2-1.9-14.9-5.6s-5.6-8.9-5.6-15.5
		v-15.7c0-6.6,1.9-11.8,5.6-15.5c3.7-3.8,8.7-5.6,14.9-5.6c6.2,0,11.2,1.9,15,5.6s5.6,8.9,5.6,15.5L175.9,255.4z M165,239.6
		c0-4.1-0.8-7.2-2.5-9.3c-1.8-2.1-4.5-3.3-7.2-3.1c-3.2,0-5.6,1-7.2,3.1s-2.4,5.2-2.4,9.3v15.8c0,4.2,0.8,7.3,2.4,9.4
		c1.6,2.1,4,3.1,7.2,3.1c3.2,0,5.6-1,7.2-3.1s2.5-5.2,2.5-9.4L165,239.6z"/>
	<path class="st1" d="M233.7,255.3v20.4h-10.9v-56.4h18.9c5.7,0,10.1,1.7,13.4,5c3.3,3.3,5,7.7,5,13c0,5.4-1.7,9.7-5,13
		c-3.3,3.3-7.8,4.9-13.4,4.9H233.7z M233.7,246.7h7.9c2.2,0.1,4.3-0.9,5.6-2.6c1.3-2,2-4.3,1.9-6.7c0.1-2.4-0.6-4.8-1.9-6.8
		c-1.3-1.8-3.4-2.8-5.6-2.7h-7.9V246.7z"/>
	<path class="st1" d="M291,250.8h-17.2v16.4h20.6v8.5h-31.6v-56.4h31.5v8.6h-20.6v14.4H291L291,250.8z"/>
	<path class="st1" d="M323.1,261.1c0.1-1.9-0.5-3.8-1.7-5.3c-1.8-1.7-3.9-3-6.2-3.8c-5.8-2-10.1-4.4-13.1-6.9
		c-2.9-2.6-4.4-6.2-4.4-10.8c-0.1-4.3,1.7-8.5,5-11.3c3.3-2.9,7.6-4.4,12.7-4.4c5.5,0,9.9,1.5,13.2,4.6s4.9,7.3,4.8,12.5l-0.1,0.2
		h-10.6c0-2.9-0.7-5.1-2-6.6c-1.4-1.6-3.5-2.4-5.6-2.3c-1.9-0.1-3.7,0.7-4.9,2.1c-1.2,1.5-1.8,3.3-1.7,5.2c-0.1,1.8,0.7,3.5,2,4.7
		c2,1.7,4.3,3.1,6.8,4.1c5.4,1.8,9.6,4.1,12.4,6.9s4.2,6.5,4.2,11.2c0,4.8-1.6,8.6-4.9,11.4c-3.3,2.8-7.6,4.1-13.1,4.1
		c-4.9,0.1-9.8-1.4-13.7-4.5c-3.8-3-5.6-7.5-5.5-13.6l0.1-0.2h10.7c0,3.5,0.7,6.1,2.2,7.6c1.4,1.5,3.5,2.3,6.3,2.3
		c2,0.1,3.9-0.6,5.3-1.9C322.5,264.8,323.2,263,323.1,261.1z"/>
	<g transform="translate(178.778 191.125)">
		<path class="st0" d="M40,84.6H29l-17.9-36l-0.2,0v35.9H0V28.2h10.9l17.9,36l0.2,0v-36H40L40,84.6z"/>
		<g transform="translate(29.063 14.341)">
			
				<linearGradient id="SVGID_1_" gradientUnits="userSpaceOnUse" x1="-326.7052" y1="89.1874" x2="-326.7052" y2="88.6271" gradientTransform="matrix(11.221 0 0 -70.249 3671.5701 6282.4551)">
				<stop  offset="0" style="stop-color:#3366CC"/>
				<stop  offset="0.995" style="stop-color:#004884"/>
			</linearGradient>
			<rect x="0" y="13.9" class="st2" width="11.2" height="56.4"/>
		</g>
	</g>
</g>
</svg>
