<?xml version="1.0" encoding="utf-8"?>
<!-- Generator: Adobe Illustrator 24.1.2, SVG Export Plug-In . SVG Version: 6.00 Build 0)  -->
<svg version="1.1" id="Capa_1" xmlns="http://www.w3.org/2000/svg" xmlns:xlink="http://www.w3.org/1999/xlink" x="0px" y="0px"
	 viewBox="0 0 96 96" style="enable-background:new 0 0 96 96;" xml:space="preserve">
<style type="text/css">
	.st0{fill:#069169;}
	.st1{fill:#F6F8F9;}
</style>
<g>
	<path class="st0" d="M47.9,12.2c1.6,0.3,2.8,1.3,3.9,2.4c5,4.9,10,9.9,15,14.7c1.3,1.3,1.9,2.7,1.9,4.5c0,1.7,0,3.3,0,5
		c0,0.4-0.1,0.8-0.4,1c-0.2,0.2-0.8,0.3-1.1,0.2c-0.3-0.2-0.6-0.7-0.7-1c-0.1-1.7,0-3.5,0-5.2c0-1.1,0-1.1-1.1-1.1
		c-4.1,0-8.3,0-12.4,0c-2.6,0-4.5-1.4-5.1-3.7c-0.1-0.5-0.2-1.1-0.2-1.7c0-4,0-8.1,0-12.1c0-0.7-0.2-0.9-0.9-0.9c-8,0-16.1,0-24.1,0
		c-2.7,0-4.7,2-4.7,4.6c0,1.2,0,2.4,0,3.6c0,0.8-0.4,1.3-1,1.3c-0.6,0-1.1-0.5-1.1-1.3c0-1.3,0-2.6,0-3.8c0.1-3.1,2.3-5.7,5.4-6.4
		c0.1,0,0.3-0.1,0.4-0.1C30.5,12.2,39.2,12.2,47.9,12.2z M50,16.1c0,0.1,0,0.3,0,0.5c0,3.6,0,7.3,0,10.9c0,2.1,1.1,3.1,3.2,3.1
		c3.7,0,7.3,0,11,0c0.2,0,0.5,0,0.8,0C59.8,25.7,54.9,20.9,50,16.1z"/>
	<path class="st0" d="M66.5,50.5c0-2,0-4,0-6c0-0.2-0.1-0.5,0-0.7c0.2-0.3,0.5-0.7,0.9-0.8c0.5-0.2,0.9,0.1,1.1,0.7
		c0.1,0.3,0.1,0.5,0.1,0.8c0,2.6,0,5.2,0,7.8c0,0.3,0.2,0.7,0.4,1c1.9,1.9,3.9,3.8,5.8,5.7c1.3,1.2,1.5,2.8,0.6,4.3
		c-0.9,1.5-2.7,2.4-4.3,2c-0.5-0.1-0.7-0.1-1,0.3c-0.5,0.5-1.1,1-1.7,1.5c1.1,0.9,2.1,1.6,3.1,2.4c2.1,1.6,4.1,3.2,6.2,4.8
		c3.1,2.4,3.1,5.9-0.1,8.2c-2.5,1.9-4.9,1.8-7-0.7c-2.4-2.8-4.7-5.8-7-8.7c-0.2-0.2-0.3-0.4-0.6-0.7c-0.6,0.7-1.2,1.2-1.7,1.8
		c-0.1,0.1-0.1,0.5,0,0.7c0.7,2.6-2.2,5.4-4.8,4.6c-0.7-0.2-1.4-0.7-1.8-1.3c-0.9-1.1-2-1.5-3.5-1.4c-5.5,0.1-11.1,0-16.6,0
		c-0.3,0-0.6,0-0.9-0.1c-0.5-0.1-0.8-0.6-0.7-1.1c0.1-0.5,0.4-0.8,0.9-0.9c0.2,0,0.5,0,0.7,0c5.1,0,10.3,0,15.5,0c0.3,0,0.5,0,1,0
		c-0.2-0.3-0.4-0.4-0.6-0.6c-1.9-1.9-3.8-3.8-5.8-5.6c-1.4-1.3-1.3-3.1-0.6-4.3c0.9-1.5,2.8-2.4,4.3-2c0.5,0.1,0.7,0,1-0.3
		c2.9-2.8,5.7-5.6,8.6-8.4c0.3-0.3,0.4-0.6,0.3-1c-0.7-2.5,1.9-5.3,4.5-4.7c0.6,0.1,1.2,0.5,1.6,0.9c0.7,0.5,1.2,1.2,1.8,1.8
		C66.4,50.6,66.4,50.6,66.5,50.5z M69,63.6c-1-0.9-2-1.9-3-2.9c-0.3-0.3-0.4-0.7-0.4-1.1c0-0.3,0.4-0.7,0.6-0.7
		c0.4-0.1,0.9,0.1,1.2,0.3c1.3,1.2,2.5,2.4,3.7,3.6c0.7,0.7,1.4,0.6,2.2-0.1c0.7-0.7,0.8-1.5,0.1-2.2c-3.4-3.3-6.8-6.7-10.2-10
		c-0.7-0.7-1.4-0.7-2.2,0.1c-0.7,0.7-0.8,1.5-0.1,2.2c0.9,0.9,1.9,1.8,2.8,2.7c0.6,0.6,0.6,1.3,0,1.7c-0.5,0.4-1,0.3-1.5-0.2
		c-0.7-0.7-1.5-1.5-2.2-2.2c-3.1,3.1-6.2,6.1-9.2,9.1c2.9,2.9,5.9,5.9,8.9,8.8C62.7,69.7,65.8,66.7,69,63.6z M64.7,71
		c0.7,0.9,1.5,1.9,2.2,2.8c1.8,2.2,3.5,4.4,5.3,6.6c1.2,1.5,2.8,1.6,4.3,0.4c0.2-0.2,0.4-0.4,0.6-0.5c1.3-1.5,1.2-2.9-0.4-4.2
		c-3.1-2.4-6.1-4.8-9.2-7.1c-0.1-0.1-0.3-0.2-0.3-0.2C66.2,69.5,65.5,70.2,64.7,71z M59.3,75.6c-0.1-0.2-0.3-0.5-0.6-0.8
		c-3.4-3.3-6.8-6.6-10.2-10c-0.7-0.7-1.5-0.7-2.2,0c-0.8,0.7-0.8,1.5-0.1,2.2c3.4,3.3,6.8,6.6,10.1,9.9c0.5,0.4,0.9,0.7,1.6,0.4
		C58.6,77.2,59.2,76.5,59.3,75.6z"/>
	<path class="st0" d="M15.9,49.2c0-7,0-14,0-21c0-0.3,0-0.5,0-0.8c0.1-0.6,0.5-0.9,1.1-0.9c0.6,0,0.9,0.4,1,0.9c0,0.3,0,0.5,0,0.8
		c0,13.8,0,27.6,0,41.4c0,3.2,1.9,5.1,5.1,5.1c1.9,0,3.8,0,5.7,0c0.7,0,1.1,0.4,1.1,1c0,0.6-0.4,1.1-1,1.1c-2.4,0-4.8,0.1-7.2-0.1
		c-3.6-0.4-5.9-3.2-5.9-6.7c0-6.4,0-12.9,0-19.3C15.9,50.3,15.9,49.7,15.9,49.2z"/>
	<path class="st0" d="M40.8,42.6c-5.1,0-10.2,0-15.3,0c-0.3,0-0.5,0-0.8,0c-0.6-0.1-0.8-0.4-0.9-1c0-0.5,0.2-0.9,0.8-1
		c0.2-0.1,0.5-0.1,0.8-0.1c10.3,0,20.6,0,30.9,0c0.2,0,0.5,0,0.7,0.1c0.6,0.1,0.9,0.5,0.8,1.1c0,0.5-0.3,0.9-0.9,0.9
		c-0.2,0-0.5,0-0.8,0C51.1,42.6,45.9,42.6,40.8,42.6z"/>
	<path class="st0" d="M37.3,51c-3.9,0-7.9,0-11.8,0c-0.3,0-0.5,0-0.8,0c-0.5-0.1-0.8-0.4-0.8-0.9c0-0.5,0.2-0.9,0.7-1.1
		c0.3-0.1,0.6-0.1,0.8-0.1c7.9,0,15.8,0,23.7,0c0.3,0,0.5,0,0.8,0.1c0.6,0.1,0.8,0.5,0.8,1.1c0,0.5-0.3,0.9-0.9,0.9
		c-0.2,0-0.5,0-0.8,0C45.1,51,41.2,51,37.3,51z"/>
	<path class="st0" d="M34,59.4c-2.8,0-5.5,0-8.3,0c-0.3,0-0.5,0-0.8,0c-0.5-0.1-0.8-0.4-0.8-0.9c0-0.5,0.2-0.9,0.7-1.1
		c0.3-0.1,0.6-0.1,0.8-0.1c5.5,0,11.1,0,16.6,0c0.2,0,0.4,0,0.6,0c0.6,0.1,0.9,0.5,0.9,1.1c0,0.6-0.4,1-1,1c-0.8,0-1.6,0-2.4,0
		C38.3,59.4,36.2,59.4,34,59.4z"/>
	<path class="st0" d="M34,34.2c-2.8,0-5.5,0-8.3,0c-0.3,0-0.5,0-0.8,0c-0.6-0.1-0.8-0.4-0.9-1c0-0.6,0.3-0.9,0.8-1
		c0.2,0,0.5,0,0.7,0c5.5,0,11.1,0,16.6,0c0.1,0,0.3,0,0.4,0c0.7,0.1,1.2,0.5,1.1,1.1c0,0.6-0.5,1-1.1,1c-1.4,0-2.8,0-4.1,0
		C37.1,34.2,35.6,34.2,34,34.2z"/>
	<path class="st1" d="M50,16.1c4.9,4.8,9.9,9.6,14.9,14.5c-0.3,0-0.6,0-0.8,0c-3.7,0-7.3,0-11,0c-2.1,0-3.2-1.1-3.2-3.1
		c0-3.6,0-7.3,0-10.9C49.9,16.4,50,16.2,50,16.1z"/>
	<path class="st1" d="M69,63.6c-3.2,3.1-6.2,6.1-9.2,9.1c-3-2.9-6-5.9-8.9-8.8c3-3,6.1-6,9.2-9.1c0.7,0.7,1.5,1.5,2.2,2.2
		c0.4,0.4,0.9,0.5,1.5,0.2c0.6-0.4,0.6-1.1,0-1.7c-0.9-0.9-1.8-1.8-2.8-2.7c-0.7-0.7-0.7-1.5,0.1-2.2c0.8-0.7,1.5-0.8,2.2-0.1
		c3.4,3.3,6.8,6.7,10.2,10c0.7,0.7,0.6,1.5-0.1,2.2c-0.7,0.7-1.5,0.8-2.2,0.1c-1.3-1.2-2.5-2.5-3.7-3.6c-0.3-0.2-0.8-0.4-1.2-0.3
		c-0.2,0-0.6,0.5-0.6,0.7c0,0.4,0.2,0.8,0.4,1.1C66.9,61.7,68,62.7,69,63.6z"/>
	<path class="st1" d="M64.7,71c0.8-0.7,1.6-1.5,2.4-2.3c0,0,0.2,0.1,0.3,0.2c3.1,2.4,6.2,4.7,9.2,7.1c1.6,1.2,1.7,2.7,0.4,4.2
		c-0.2,0.2-0.4,0.4-0.6,0.5c-1.5,1.3-3,1.2-4.3-0.4c-1.8-2.2-3.6-4.4-5.3-6.6C66.2,72.9,65.4,71.9,64.7,71z"/>
	<path class="st1" d="M59.3,75.6c0,0.8-0.6,1.6-1.3,1.9c-0.7,0.3-1.1,0-1.6-0.4c-3.4-3.3-6.7-6.6-10.1-9.9c-0.7-0.7-0.7-1.5,0.1-2.2
		c0.8-0.7,1.5-0.7,2.2,0c3.4,3.3,6.8,6.6,10.2,10C59,75.1,59.2,75.5,59.3,75.6z"/>
</g>
</svg>
