<?xml version="1.0" encoding="utf-8"?>
<!-- Generator: Adobe Illustrator 24.1.2, SVG Export Plug-In . SVG Version: 6.00 Build 0)  -->
<svg version="1.1" id="Capa_1" xmlns="http://www.w3.org/2000/svg" xmlns:xlink="http://www.w3.org/1999/xlink" x="0px" y="0px"
	 viewBox="0 0 69 72" style="enable-background:new 0 0 69 72;" xml:space="preserve">
<style type="text/css">
	.st0{clip-path:url(#SVGID_2_);}
	.st1{fill:#069169;}
</style>
<g>
	<defs>
		<rect id="SVGID_1_" x="6" y="4.4" width="57.1" height="63.1"/>
	</defs>
	<clipPath id="SVGID_2_">
		<use xlink:href="#SVGID_1_"  style="overflow:visible;"/>
	</clipPath>
	<g class="st0">
		<path class="st1" d="M30.8,63.4c-0.1,0-0.2-0.1-0.3-0.1c-2-0.5-3.3-2.1-3.3-4.2c0-0.6-0.1-1-0.6-1.4c-1-0.8-1.5-2-1.5-3.3
			c0-1.6-0.1-3.2-0.1-4.8c0-1.4-0.4-2.7-1.3-3.7c-0.8-1-1.7-1.9-2.5-2.9c-3.4-4.1-4.5-8.9-3.7-14.1c0.1-0.6,0.5-0.9,1-0.8
			c0.5,0.1,0.7,0.5,0.6,1.2c-0.4,2.6-0.3,5.2,0.6,7.7c0.7,2.2,2,4.1,3.6,5.8c0.6,0.6,1.2,1.3,1.7,2c0.7,0.9,1.2,1.8,1.5,2.9
			c0.1,0.3,0.1,0.4,0.5,0.4c4.6,0,9.3,0,13.9,0c0.1,0,0.4-0.2,0.4-0.3c0.4-1.9,1.5-3.4,2.8-4.7c2.3-2.4,3.8-5.1,4.4-8.4
			C50,26.3,44,18,35.6,16.9c-6.2-0.8-12.3,2.5-15.1,8.2c-0.4,0.8-0.8,1-1.3,0.8c-0.5-0.3-0.6-0.8-0.2-1.5c3.3-6.1,8.3-9.3,15.1-9.3
			c7.9,0.1,14.7,6.1,16,13.9c0.9,5.7-0.6,10.6-4.5,14.9c-0.6,0.7-1.2,1.4-1.8,2.2c-0.7,1-1,2.1-1,3.3c0,1.6,0,3.3,0,4.9
			c0,1.6-0.6,2.8-1.8,3.7c-0.4,0.3-0.3,0.6-0.3,0.9c0,1.8-0.8,3.2-2.4,4c-0.4,0.2-0.8,0.3-1.1,0.4C35,63.4,32.9,63.4,30.8,63.4z
			 M26.7,52.7c0.3,0,0.5,0,0.7,0c2.5,0,4.9,0,7.4,0c0.2,0,0.3,0,0.5,0c0.4,0,0.7,0.3,0.8,0.7c0,0.5-0.2,0.8-0.7,0.9
			c-0.2,0-0.4,0-0.6,0c-2.5,0-5,0-7.5,0c-0.2,0-0.4,0-0.6,0c0,1.5,1.1,2.8,2.5,2.8c3.1,0,6.2,0,9.3,0c1.5,0,2.7-1.4,2.5-2.8
			c-0.6,0-1.1,0-1.7,0c-0.7,0-1-0.3-1-0.8c0-0.5,0.4-0.8,1-0.8c0.6,0,1.2,0,1.8,0c0-1,0-1.9,0-2.8c-4.8,0-9.6,0-14.3,0
			c0,0.1,0,0.2,0,0.3C26.7,51,26.7,51.8,26.7,52.7z M28.9,58.9c-0.2,1.4,0.8,2.8,2.3,2.8c1.8,0.1,3.7,0.1,5.5,0
			c1.4,0,2.6-1.5,2.2-2.8C35.6,58.9,32.3,58.9,28.9,58.9z"/>
		<path class="st1" d="M34.1,5.8c0.4,0.3,0.5,0.8,0.5,1.3c0,1.6,0,3.3,0,4.9c0,0.2,0,0.4,0,0.6c-0.1,0.4-0.4,0.7-0.8,0.6
			c-0.3-0.1-0.6-0.4-0.8-0.6c-0.1-0.1-0.1-0.4-0.1-0.6c0-1.6,0-3.3,0-4.9c0-0.5,0.1-1,0.5-1.3C33.6,5.8,33.9,5.8,34.1,5.8z"/>
		<path class="st1" d="M32.6,34.7c0.9-1.2,1.8-2.3,2.6-3.4c0.9-1.2,1.8-2.3,2.7-3.5c1-1.3,2.6-1.5,3.8-0.6c1.2,0.9,1.4,2.6,0.4,3.9
			c-0.5,0.7-1,1.3-1.5,1.9c-0.4,0.5-0.9,0.6-1.3,0.3c-0.4-0.3-0.4-0.8,0-1.3c0.4-0.6,0.9-1.2,1.3-1.7c0.6-0.7,0.6-1.3,0-1.7
			c-0.5-0.4-1.1-0.2-1.6,0.5c-1.8,2.4-3.7,4.8-5.5,7.2c-0.7,0.9-1.1,0.9-1.9,0.1c-1.1-1.2-2.2-2.5-3.3-3.7c-0.2-0.3-0.7-0.5-1-0.5
			c-0.8,0-1.1,1-0.6,1.6c1.7,2,3.5,3.9,5.2,5.8c0.5,0.5,1.1,0.5,1.6-0.1c1-1.2,1.9-2.5,2.9-3.7c0.1-0.1,0.2-0.3,0.3-0.4
			c0.3-0.4,0.8-0.5,1.2-0.2c0.4,0.3,0.4,0.8,0.1,1.2c-0.3,0.5-0.7,0.9-1.1,1.4c-0.7,1-1.5,1.9-2.2,2.9c-1.1,1.4-3,1.5-4.2,0.1
			c-1.7-1.9-3.4-3.8-5.1-5.7c-1.1-1.2-1-2.9,0.1-3.9c1.2-1,2.8-0.9,3.9,0.3c1,1,1.9,2.1,2.8,3.2C32.4,34.7,32.5,34.7,32.6,34.7z"/>
		<path class="st1" d="M9.6,33c0.9,0,1.8,0,2.7,0c0.6,0,1,0.3,1,0.8c0,0.5-0.4,0.8-1,0.9c-1.8,0-3.6,0-5.3,0c-0.6,0-1-0.3-1-0.9
			C6,33.3,6.3,33,7,33C7.9,32.9,8.7,33,9.6,33z"/>
		<path class="st1" d="M57.9,34.6c-0.9,0-1.7,0-2.6,0c-0.7,0-1-0.3-1-0.8c0-0.5,0.4-0.8,1-0.8c1.8,0,3.5,0,5.3,0c0.6,0,1,0.3,1,0.9
			c0,0.5-0.4,0.8-1,0.8C59.7,34.7,58.8,34.6,57.9,34.6z"/>
		<path class="st1" d="M19.6,48.9c-0.2,0.3-0.3,0.6-0.4,0.7c-1.3,1.3-2.5,2.6-3.8,3.9c-0.4,0.4-0.9,0.4-1.3,0.1
			c-0.3-0.3-0.3-0.8,0.1-1.2c1.3-1.3,2.6-2.6,3.8-3.9c0.3-0.3,0.7-0.4,1-0.2C19.3,48.4,19.4,48.7,19.6,48.9z"/>
		<path class="st1" d="M19.6,18.6c-0.2,0.3-0.3,0.6-0.6,0.7c-0.3,0.2-0.7,0.1-1-0.2c-0.7-0.7-1.5-1.5-2.2-2.3
			c-0.5-0.5-1.1-1.1-1.6-1.6c-0.4-0.4-0.4-0.9-0.1-1.3c0.3-0.3,0.8-0.3,1.2,0.1c1.3,1.3,2.6,2.6,3.9,3.9
			C19.4,18.1,19.5,18.4,19.6,18.6z"/>
		<path class="st1" d="M53.8,14.5c-0.2,0.3-0.3,0.6-0.4,0.7c-1.3,1.3-2.5,2.6-3.8,3.9c-0.4,0.4-0.9,0.5-1.3,0.1
			c-0.3-0.4-0.3-0.8,0.1-1.2c1.3-1.3,2.6-2.6,3.9-3.9c0.3-0.3,0.7-0.4,1-0.2C53.4,14,53.5,14.3,53.8,14.5z"/>
		<path class="st1" d="M48.7,48c0.3,0.2,0.6,0.3,0.7,0.4c1.3,1.3,2.6,2.6,3.9,3.9c0.4,0.4,0.4,0.9,0.1,1.2c-0.3,0.3-0.8,0.3-1.2,0
			c-1.3-1.3-2.6-2.6-3.9-3.9c-0.2-0.2-0.3-0.7-0.2-0.9C48.1,48.4,48.5,48.2,48.7,48z"/>
	</g>
</g>
</svg>
