<svg id="Capa_1" data-name="Capa 1" xmlns="http://www.w3.org/2000/svg" viewBox="0 0 333 333"><defs><style>.cls-1{fill:#004884;}</style></defs><path class="cls-1" d="M278.61,0H54.39A54.39,54.39,0,0,0,0,54.39V278.61A54.39,54.39,0,0,0,54.39,333H278.61A54.39,54.39,0,0,0,333,278.61V54.39A54.39,54.39,0,0,0,278.61,0Zm9.28,232.88a18.09,18.09,0,0,1-25.59-.18L166,137.45,70.75,233.74c-.06.06-.11.12-.17.17a18.09,18.09,0,1,1-25.53-25.65L153.63,98.63a18.07,18.07,0,0,1,25,.38L287.7,206.92l.37.37A18.09,18.09,0,0,1,287.89,232.88Z"/></svg>