<?xml version="1.0" encoding="utf-8"?>
<!-- Generator: Adobe Illustrator 24.1.2, SVG Export Plug-In . SVG Version: 6.00 Build 0)  -->
<svg version="1.1" id="Capa_1" xmlns="http://www.w3.org/2000/svg" xmlns:xlink="http://www.w3.org/1999/xlink" x="0px" y="0px"
	 viewBox="0 0 48 48" style="enable-background:new 0 0 48 48;" xml:space="preserve">
<style type="text/css">
	.st0{fill:#FFFFFF;}
</style>
<path class="st0" d="M22.9,1C10.3,1,0,11.3,0,23.9c0,3.8,1,7.3,2.6,10.4l-2.5,8.9c-0.6,2.1,1.5,4.1,3.5,3.5l8.9-2.5
	c3.1,1.6,6.6,2.6,10.4,2.6c12.6,0,22.9-10.3,22.9-22.9S35.5,1,22.9,1z M22.9,4.4c10.8,0,19.5,8.7,19.5,19.5s-8.7,19.5-19.5,19.5
	c-3.4,0-6.7-0.9-9.5-2.5c-0.4-0.2-0.9-0.3-1.3-0.2l-8.5,2.4l2.4-8.5c0.1-0.4,0.1-0.9-0.2-1.3c-1.6-2.8-2.5-6-2.5-9.5
	C3.4,13.1,12.1,4.4,22.9,4.4z M15.2,13.6c-0.4,0-1,0.1-1.5,0.7c-0.5,0.5-1.9,1.9-1.9,4.6s2,5.3,2.2,5.7c0.3,0.4,3.8,6.1,9.3,8.3
	c4.6,1.8,5.6,1.5,6.6,1.4c1-0.1,3.2-1.3,3.7-2.6c0.5-1.3,0.5-2.4,0.3-2.6c-0.1-0.2-0.5-0.4-1-0.6c-0.5-0.3-3.2-1.6-3.7-1.8
	c-0.5-0.2-0.9-0.3-1.2,0.3c-0.4,0.5-1.4,1.8-1.7,2.1c-0.3,0.4-0.6,0.4-1.2,0.1c-0.5-0.3-2.3-0.9-4.4-2.7c-1.6-1.4-2.7-3.2-3-3.8
	c-0.3-0.5,0-0.8,0.2-1.1c0.2-0.2,0.5-0.6,0.8-1c0.3-0.3,0.4-0.5,0.5-0.9c0.2-0.4,0.1-0.7,0-1c-0.1-0.3-1.2-3-1.7-4.1
	c-0.4-0.9-0.8-0.9-1.2-0.9C15.9,13.6,15.5,13.6,15.2,13.6z"/>
</svg>
