<svg xmlns="http://www.w3.org/2000/svg" xmlns:xlink="http://www.w3.org/1999/xlink" width="240.204" height="85.404" viewBox="0 0 240.204 85.404"><defs><style>.a{fill:#004884;}.b{fill:#36c;}.c{fill:url(#a);}</style><linearGradient id="a" x1="0.5" y1="0.058" x2="0.5" y2="0.756" gradientUnits="objectBoundingBox"><stop offset="0" stop-color="#36c"/><stop offset="0.995" stop-color="#004884"/></linearGradient></defs><g transform="translate(-93.782 -191.125)"><path class="a" d="M131.777,300.647l.077.233q.154,9.062-4.628,13.575t-13.652,4.512q-9.1,0-14.447-5.364t-5.345-15.241V281.63q0-9.837,5.171-15.26t13.962-5.422q9.256,0,14.214,4.493t4.8,13.595l-.077.232H121.242q0-5.421-1.917-7.59t-6.41-2.169a6.994,6.994,0,0,0-6.158,2.963q-2.054,2.963-2.053,9.082v16.809q0,6.158,2.208,9.121t6.662,2.963q4.066,0,5.848-2.15t1.782-7.649Z" transform="translate(0 -42.438)"/><path class="a" d="M239.5,297.858q0,9.955-5.616,15.532t-14.95,5.577q-9.335,0-14.911-5.577t-5.577-15.532V282.134q0-9.915,5.558-15.55t14.891-5.636q9.334,0,14.97,5.636t5.635,15.55Zm-10.883-15.841q0-6.158-2.5-9.3a8.687,8.687,0,0,0-7.223-3.137q-4.764,0-7.165,3.118t-2.4,9.314v15.841q0,6.275,2.421,9.411t7.185,3.137q4.764,0,7.223-3.137t2.46-9.411Z" transform="translate(-63.611 -42.438)"/><path class="b" d="M433.51,299v20.411H422.588V263.022h18.861q8.482,0,13.44,4.977t4.958,13.033q0,8.1-4.958,13.032T441.449,299Zm0-8.56h7.94a6.486,6.486,0,0,0,5.6-2.634,11.092,11.092,0,0,0,1.918-6.7,11.5,11.5,0,0,0-1.918-6.836,6.438,6.438,0,0,0-5.6-2.692h-7.94Z" transform="translate(-199.845 -43.698)"/><path class="b" d="M552.913,294.51H535.678v16.383h20.643v8.521H524.756V263.022h31.488v8.56H535.678v14.407h17.235Z" transform="translate(-261.941 -43.698)"/><path class="b" d="M637.667,303.513a7.775,7.775,0,0,0-1.723-5.325,17.145,17.145,0,0,0-6.177-3.815q-8.676-3.059-13.052-6.934T612.338,276.6a14.281,14.281,0,0,1,5-11.29q5-4.357,12.743-4.357,8.21,0,13.207,4.648t4.841,12.472l-.078.232H637.436q0-4.376-1.956-6.642a6.991,6.991,0,0,0-5.6-2.266,6.03,6.03,0,0,0-4.88,2.072,7.761,7.761,0,0,0-1.742,5.171,6.205,6.205,0,0,0,1.975,4.725,26.415,26.415,0,0,0,6.778,4.067q8.171,2.711,12.374,6.855t4.2,11.154q0,7.243-4.919,11.387t-13.052,4.144a21.512,21.512,0,0,1-13.711-4.474q-5.694-4.474-5.5-13.614l.078-.233h10.651q0,5.307,2.15,7.63t6.333,2.323a6.791,6.791,0,0,0,5.286-1.936A7.355,7.355,0,0,0,637.667,303.513Z" transform="translate(-314.604 -42.438)"/><g transform="translate(178.778 191.125)"><path class="a" d="M350.463,319.414H339.541l-17.893-35.981-.232.039v35.942H310.493V263.022h10.922l17.893,36.02.232-.039V263.022h10.922Z" transform="translate(-310.493 -234.823)"/><g transform="translate(29.063 14.341)"><rect class="c" width="11.221" height="70.249"/></g><g transform="translate(20.569)"><path class="b" d="M362.937,205.466h28.209l-14.1-14.341Z" transform="translate(-362.937 -191.125)"/></g></g></g></svg>