<svg xmlns="http://www.w3.org/2000/svg" width="44.56" height="41.131" viewBox="0 0 44.56 41.131"><defs><style>.a{fill:#fff;}</style></defs><path class="a" d="M46.853,38.21c-5.549-.857-5.966-1.253-5.966-1.253,1.671-7.927-2.4-16.185-8.173-20.952C25.023,9.664,13.336,14.27,4.231,4.629,2.111,2.38,3.342,29.855,14.74,40.267a20.037,20.037,0,0,0,20.834,4.028,11.927,11.927,0,0,0,4.145-3.631,31.435,31.435,0,0,0,6.641,1.521C47.924,42.377,48.717,38.5,46.853,38.21ZM37.02,39c-8.323-2.5-15.564-8.676-20.256-13.518a.437.437,0,0,1,.589-.643A65.14,65.14,0,0,0,38.059,36.4,3.994,3.994,0,0,1,37.02,39Z" transform="translate(-3.376 -4.499)"/></svg>